<?xml version="1.0" encoding="utf-8"?>
<!-- Generator: Adobe Illustrator 22.1.0, SVG Export Plug-In . SVG Version: 6.00 Build 0)  -->
<svg version="1.1" id="Layer_1" xmlns="http://www.w3.org/2000/svg" xmlns:xlink="http://www.w3.org/1999/xlink" x="0px" y="0px"
	 viewBox="0 0 485.5 369.5" style="enable-background:new 0 0 485.5 369.5;" xml:space="preserve">
<style type="text/css">
	.st0{fill:#4D4D4D;}
	.st1{fill:#D4C0B2;stroke:#FFFFFF;stroke-miterlimit:10;}
	.st2{fill:#CCCCCC;stroke:#FFFFFF;stroke-miterlimit:10;}
	.st3{fill:#D4C0B2;stroke:#FFFFFF;stroke-width:1.01;stroke-miterlimit:10;}
	.st4{fill:#8CC63F;}
	.st5{fill:none;stroke:#FFFFFF;stroke-miterlimit:10;}
	.st6{fill:#FFFFFF;}
	.st7{font-family:'PalatinoLinotype-Roman';}
	.st8{font-size:12px;}
	.st9{letter-spacing:-1;}
</style>
<title>floor1</title>
<rect x="1.5" y="1" class="st0" width="483" height="367"/>
<path d="M458.4,75.3c1.3,0.5,2.7,0.6,4.1,0.5c0.8-0.2,1.5-0.5,2.1-1c0.7,2,0.8,4.8-1.1,5.5c-1.5,0.6-3.2,0.3-4.5-0.7
	C457.7,78.5,457.4,76.7,458.4,75.3"/>
<path d="M459.2,50.9c1.5,1.4,3.9,1.4,5.3-0.1c0.9,1.7,0.9,3.8,0.1,5.5c-1.5,0-3.1,0.1-4.6,0.1c-1-0.1-1.8-0.8-2-1.8
	c-0.1-1,0-2,0.3-3C458.6,51.3,458.9,51.1,459.2,50.9"/>
<path d="M471.8,66.8c0.6-0.1,1.3,0,1.9,0.2c-0.1,0.5-0.4,1-0.9,1.3c0.8,0.1,0.8,1.6,0,1.6l1.3,0.5c-0.4,3.5-0.5,7-0.4,10.5
	c-0.8,0.4-1.5,0.9-2.2,1.3c-0.8,1.1-2.2,1.5-3.5,1c0.3,0.5,0.5,1,0.7,1.6c-0.6,0.2-1.3,0.4-1.9,0.7c-4.2-0.3-8.5-0.4-12.7-0.1
	c-0.9-1-3.4,0.1-3.7-1.2c-0.4-1.6-1.9-2.8-3.6-2.8L447,70c-0.5,0.3-0.7-0.7-0.5-1.2s0.3-1.4-0.2-1.4c2.2-0.6,4.5-0.6,6.6-0.1
	c0.6-0.4,1.4-0.3,1.9,0.3c0.1,0.1,0.2,0.3,0.2,0.4c1-0.1,2-0.6,2.9-1.2c0.3,0.8,1.3,0.8,2,0.7c1.9-0.3,3.8-0.7,5.6-1
	c0.2,0.4,0.7,0.5,1.1,0.5C468.4,66.9,470.1,66.8,471.8,66.8 M464.1,72.6c-1.1,0-2.3,1-3.3,0.4c-1.2-0.5-2.5-0.2-3.3,0.8
	c-0.8,1-1.2,2.2-1.1,3.4c0,1.6,0.4,3.2,1.2,4.7l4.3,0.4c1.4,0.1,2.9,0.2,4-0.6c1.5-1.2,1.4-3.5,1-5.3
	C466.5,74.6,465.6,72.7,464.1,72.6"/>
<rect x="356" y="0.5" class="st1" width="129" height="89"/>
<rect x="355" y="102.5" class="st1" width="129" height="89"/>
<rect x="355" y="206.5" class="st2" width="130" height="161"/>
<rect x="183.5" y="239" class="st2" width="161" height="130"/>
<rect x="1.5" y="239" class="st2" width="161" height="130"/>
<rect x="1.5" y="1" class="st3" width="113" height="89.5"/>
<rect x="208.5" y="1" class="st1" width="140" height="87"/>
<rect x="0.5" y="102" class="st1" width="87" height="126"/>
<g>
	<rect x="101.5" y="102.5" class="st4" width="243" height="125.5"/>
	<rect x="101.5" y="102.5" class="st5" width="243" height="125.5"/>
</g>
<text transform="matrix(1 0 0 1 223 177.5)" class="st6 st7 st8 st9">Y</text>
<text transform="matrix(1 0 0 1 229.91 177.5)" class="st6 st7 st8">ard</text>
<text transform="matrix(1 0 0 1 260 45.5)" class="st6 st7 st8">104</text>
<text transform="matrix(1 0 0 1 255 320.5)" class="st6 st7 st8">109</text>
<text transform="matrix(1 0 0 1 404 150.5)" class="st6 st7 st8">106</text>
<text transform="matrix(1 0 0 1 30 169.5)" class="st6 st7 st8">101</text>
</svg>
