<?xml version="1.0" encoding="utf-8"?>
<!-- Generator: Adobe Illustrator 23.0.0, SVG Export Plug-In . SVG Version: 6.00 Build 0)  -->
<svg version="1.1" id="Layer_1" xmlns="http://www.w3.org/2000/svg" xmlns:xlink="http://www.w3.org/1999/xlink" x="0px" y="0px"
	 viewBox="0 0 3668.1 2817.9" style="enable-background:new 0 0 3668.1 2817.9;" xml:space="preserve">
<style type="text/css">
	.st0{fill:none;}
	.st1{fill:#ECECEC;}
	.st2{fill:#FFFFFF;}
	.st3{fill:url(#SVGID_1_);stroke:#838383;stroke-width:2;stroke-miterlimit:10;}
	.st4{fill:url(#SVGID_2_);stroke:#838383;stroke-width:2;stroke-miterlimit:10;}
	.st5{fill:url(#SVGID_3_);stroke:#838383;stroke-width:2;stroke-miterlimit:10;}
	.st6{fill:url(#SVGID_4_);stroke:#838383;stroke-width:2;stroke-miterlimit:10;}
	.st7{fill:url(#SVGID_5_);stroke:#838383;stroke-width:2;stroke-miterlimit:10;}
	.st8{fill:url(#SVGID_6_);stroke:#838383;stroke-width:2;stroke-miterlimit:10;}
	.st9{fill:url(#SVGID_7_);stroke:#838383;stroke-width:2;stroke-miterlimit:10;}
	.st10{fill:url(#SVGID_8_);stroke:#838383;stroke-width:2;stroke-miterlimit:10;}
	.st11{fill:url(#SVGID_9_);stroke:#838383;stroke-width:2;stroke-miterlimit:10;}
	.st12{fill:url(#SVGID_10_);stroke:#838383;stroke-width:2;stroke-miterlimit:10;}
	.st13{fill:url(#SVGID_11_);stroke:#838383;stroke-width:2;stroke-miterlimit:10;}
	.st14{fill:url(#SVGID_12_);stroke:#838383;stroke-width:2;stroke-miterlimit:10;}
	.st15{fill:url(#SVGID_13_);stroke:#838383;stroke-width:2;stroke-miterlimit:10;}
	.st16{fill:url(#SVGID_14_);stroke:#838383;stroke-width:2;stroke-miterlimit:10;}
	.st17{fill:url(#SVGID_15_);stroke:#838383;stroke-width:2;stroke-miterlimit:10;}
	.st18{fill:url(#SVGID_16_);stroke:#838383;stroke-width:2;stroke-miterlimit:10;}
	.st19{fill:url(#SVGID_17_);stroke:#838383;stroke-width:2;stroke-miterlimit:10;}
	.st20{fill:url(#SVGID_18_);stroke:#838383;stroke-width:2;stroke-miterlimit:10;}
	.st21{fill:url(#SVGID_19_);stroke:#838383;stroke-width:2;stroke-miterlimit:10;}
	.st22{fill:url(#SVGID_20_);stroke:#838383;stroke-width:2;stroke-miterlimit:10;}
	.st23{fill:url(#SVGID_21_);stroke:#838383;stroke-width:2;stroke-miterlimit:10;}
	.st24{fill:#FFFFFF;stroke:#838383;stroke-width:2;stroke-miterlimit:10;}
	.st25{fill:url(#SVGID_22_);stroke:#838383;stroke-width:2;stroke-miterlimit:10;}
	.st26{fill:url(#SVGID_23_);stroke:#838383;stroke-width:2;stroke-miterlimit:10;}
	.st27{fill:url(#SVGID_24_);stroke:#838383;stroke-width:2;stroke-miterlimit:10;}
	.st28{fill:url(#SVGID_25_);stroke:#838383;stroke-width:2;stroke-miterlimit:10;}
	.st29{fill:url(#SVGID_26_);stroke:#838383;stroke-width:2;stroke-miterlimit:10;}
	.st30{fill:url(#SVGID_27_);stroke:#838383;stroke-width:2;stroke-miterlimit:10;}
	.st31{fill:#DAFFA9;stroke:#838383;stroke-width:2;stroke-miterlimit:10;}
	.st32{fill:#838383;}
	.st33{fill:url(#SVGID_28_);stroke:#838383;stroke-width:2;stroke-miterlimit:10;}
	.st34{fill:url(#SVGID_29_);stroke:#838383;stroke-width:2;stroke-miterlimit:10;}
	.st35{fill:#F6F6F6;stroke:#838383;stroke-width:2;stroke-miterlimit:10;}
</style>
<pattern  y="2817.9" width="78.5" height="95.9" patternUnits="userSpaceOnUse" id="Polka_dots2" viewBox="6.5 -95.9 78.5 95.9" style="overflow:visible;">
	<g>
		<rect x="6.5" y="-95.9" class="st0" width="78.5" height="95.9"/>
		<rect x="6.5" y="-95.9" class="st0" width="78.5" height="95.9"/>
		<circle class="st1" cx="82.2" cy="-92.3" r="3.7"/>
		<circle class="st1" cx="43" cy="-92.3" r="3.7"/>
		<circle class="st1" cx="3.7" cy="-92.3" r="3.7"/>
		<circle class="st1" cx="69.1" cy="-60.3" r="3.7"/>
		<circle class="st1" cx="29.9" cy="-60.3" r="3.7"/>
		<circle class="st1" cx="56" cy="-28.3" r="3.7"/>
		<circle class="st1" cx="16.8" cy="-28.3" r="3.7"/>
	</g>
</pattern>
<pattern  y="2817.9" width="78.5" height="95.9" patternUnits="userSpaceOnUse" id="Polka_dots2-3" viewBox="6.5 -95.9 78.5 95.9" style="overflow:visible;">
	<g>
		<rect x="6.5" y="-95.9" class="st0" width="78.5" height="95.9"/>
		<rect x="6.5" y="-95.9" class="st0" width="78.5" height="95.9"/>
		<circle class="st1" cx="82.2" cy="-92.3" r="3.7"/>
		<circle class="st1" cx="43" cy="-92.3" r="3.7"/>
		<circle class="st1" cx="3.7" cy="-92.3" r="3.7"/>
		<circle class="st1" cx="69.1" cy="-60.3" r="3.7"/>
		<circle class="st1" cx="29.9" cy="-60.3" r="3.7"/>
		<circle class="st1" cx="56" cy="-28.3" r="3.7"/>
		<circle class="st1" cx="16.8" cy="-28.3" r="3.7"/>
	</g>
</pattern>
<pattern  y="2817.9" width="78.5" height="95.9" patternUnits="userSpaceOnUse" id="Polka_dots2-43" viewBox="6.5 -95.9 78.5 95.9" style="overflow:visible;">
	<g>
		<rect x="6.5" y="-95.9" class="st0" width="78.5" height="95.9"/>
		<rect x="6.5" y="-95.9" class="st0" width="78.5" height="95.9"/>
		<circle class="st1" cx="82.2" cy="-92.3" r="3.7"/>
		<circle class="st1" cx="43" cy="-92.3" r="3.7"/>
		<circle class="st1" cx="3.7" cy="-92.3" r="3.7"/>
		<circle class="st1" cx="69.1" cy="-60.3" r="3.7"/>
		<circle class="st1" cx="29.9" cy="-60.3" r="3.7"/>
		<circle class="st1" cx="56" cy="-28.3" r="3.7"/>
		<circle class="st1" cx="16.8" cy="-28.3" r="3.7"/>
	</g>
</pattern>
<pattern  y="2817.9" width="78.5" height="95.9" patternUnits="userSpaceOnUse" id="Polka_dots2-45" viewBox="6.5 -95.9 78.5 95.9" style="overflow:visible;">
	<g>
		<rect x="6.5" y="-95.9" class="st0" width="78.5" height="95.9"/>
		<rect x="6.5" y="-95.9" class="st0" width="78.5" height="95.9"/>
		<circle class="st1" cx="82.2" cy="-92.3" r="3.7"/>
		<circle class="st1" cx="43" cy="-92.3" r="3.7"/>
		<circle class="st1" cx="3.7" cy="-92.3" r="3.7"/>
		<circle class="st1" cx="69.1" cy="-60.3" r="3.7"/>
		<circle class="st1" cx="29.9" cy="-60.3" r="3.7"/>
		<circle class="st1" cx="56" cy="-28.3" r="3.7"/>
		<circle class="st1" cx="16.8" cy="-28.3" r="3.7"/>
	</g>
</pattern>
<pattern  y="2817.9" width="78.5" height="95.9" patternUnits="userSpaceOnUse" id="Polka_dots2-49" viewBox="6.5 -95.9 78.5 95.9" style="overflow:visible;">
	<g>
		<rect x="6.5" y="-95.9" class="st0" width="78.5" height="95.9"/>
		<rect x="6.5" y="-95.9" class="st0" width="78.5" height="95.9"/>
		<circle class="st1" cx="82.2" cy="-92.3" r="3.7"/>
		<circle class="st1" cx="43" cy="-92.3" r="3.7"/>
		<circle class="st1" cx="3.7" cy="-92.3" r="3.7"/>
		<circle class="st1" cx="69.1" cy="-60.3" r="3.7"/>
		<circle class="st1" cx="29.9" cy="-60.3" r="3.7"/>
		<circle class="st1" cx="56" cy="-28.3" r="3.7"/>
		<circle class="st1" cx="16.8" cy="-28.3" r="3.7"/>
	</g>
</pattern>
<pattern  y="2817.9" width="78.5" height="95.9" patternUnits="userSpaceOnUse" id="Polka_dots2-55" viewBox="6.5 -95.9 78.5 95.9" style="overflow:visible;">
	<g>
		<rect x="6.5" y="-95.9" class="st0" width="78.5" height="95.9"/>
		<rect x="6.5" y="-95.9" class="st0" width="78.5" height="95.9"/>
		<circle class="st1" cx="82.2" cy="-92.3" r="3.7"/>
		<circle class="st1" cx="43" cy="-92.3" r="3.7"/>
		<circle class="st1" cx="3.7" cy="-92.3" r="3.7"/>
		<circle class="st1" cx="69.1" cy="-60.3" r="3.7"/>
		<circle class="st1" cx="29.9" cy="-60.3" r="3.7"/>
		<circle class="st1" cx="56" cy="-28.3" r="3.7"/>
		<circle class="st1" cx="16.8" cy="-28.3" r="3.7"/>
	</g>
</pattern>
<pattern  y="2817.9" width="78.5" height="95.9" patternUnits="userSpaceOnUse" id="Polka_dots2-57" viewBox="6.5 -95.9 78.5 95.9" style="overflow:visible;">
	<g>
		<rect x="6.5" y="-95.9" class="st0" width="78.5" height="95.9"/>
		<rect x="6.5" y="-95.9" class="st0" width="78.5" height="95.9"/>
		<circle class="st1" cx="82.2" cy="-92.3" r="3.7"/>
		<circle class="st1" cx="43" cy="-92.3" r="3.7"/>
		<circle class="st1" cx="3.7" cy="-92.3" r="3.7"/>
		<circle class="st1" cx="69.1" cy="-60.3" r="3.7"/>
		<circle class="st1" cx="29.9" cy="-60.3" r="3.7"/>
		<circle class="st1" cx="56" cy="-28.3" r="3.7"/>
		<circle class="st1" cx="16.8" cy="-28.3" r="3.7"/>
	</g>
</pattern>
<rect x="1" y="1" class="st2" width="3666.1" height="2815.9"/>
<title>floorplate-light</title>
<pattern  id="SVGID_1_" xlink:href="#Polka_dots2" patternTransform="matrix(1 0 0 -1 -56.35 -18643.1992)">
</pattern>
<polygon class="st3" points="2459.4,1.1 3198.2,1.1 3198.2,495.9 3106.9,495.9 2872.2,495.8 2716.6,495.8 2716.6,141.9 
	2459.4,141.9 "/>
<pattern  id="SVGID_2_" xlink:href="#Polka_dots2-3" patternTransform="matrix(1 0 0 -1 -96.67 -18643.1992)">
</pattern>
<polygon class="st4" points="1913.9,1 1272.9,1 1271.9,128.9 1371,128.9 1371,495.8 1449.7,495.8 1913.9,495.8 1914.1,495.8 
	1914.1,1 "/>
<pattern  id="SVGID_3_" xlink:href="#Polka_dots2" patternTransform="matrix(1 0 0 -1 -56.35 -18643.1992)">
</pattern>
<polygon class="st5" points="2459.4,141.9 2459.4,1 1914.1,1 1914.1,495.8 2459.4,495.8 2716.6,495.8 2716.6,141.9 "/>
<pattern  id="SVGID_4_" xlink:href="#Polka_dots2" patternTransform="matrix(1 0 0 -1 -56.35 -18643.1992)">
</pattern>
<polygon class="st6" points="2915.8,2407.6 2915.8,2324.1 2557.7,2324.1 2557.7,2407.6 2557.7,2816.9 3029.1,2816.9 3029.1,2407.6 
	"/>
<pattern  id="SVGID_5_" xlink:href="#Polka_dots2" patternTransform="matrix(1 0 0 -1 -56.35 -18643.1992)">
</pattern>
<rect x="1" y="2347.5" class="st7" width="469.4" height="469.4"/>
<pattern  id="SVGID_6_" xlink:href="#Polka_dots2" patternTransform="matrix(1 0 0 -1 -56.35 -18643.1992)">
</pattern>
<polygon class="st8" points="1,1790.4 1,2347.5 208.5,2347.5 208.5,2347.5 470.4,2347.5 470.4,2347.5 470.4,1790.4 "/>
<pattern  id="SVGID_7_" xlink:href="#Polka_dots2" patternTransform="matrix(1 0 0 -1 -56.35 -18643.1992)">
</pattern>
<rect x="639" y="2240.7" class="st9" width="469.4" height="576.2"/>
<pattern  id="SVGID_8_" xlink:href="#Polka_dots2" patternTransform="matrix(1 0 0 -1 -56.35 -18643.1992)">
</pattern>
<rect x="639" y="1790.4" class="st10" width="469.4" height="450.3"/>
<pattern  id="SVGID_9_" xlink:href="#Polka_dots2" patternTransform="matrix(1 0 0 -1 -56.35 -18643.1992)">
</pattern>
<rect x="639" y="1340.1" class="st11" width="469.4" height="450.3"/>
<pattern  id="SVGID_10_" xlink:href="#Polka_dots2" patternTransform="matrix(1 0 0 -1 -56.35 -18643.1992)">
</pattern>
<rect x="639" y="1020.5" class="st12" width="469.4" height="319.6"/>
<pattern  id="SVGID_11_" xlink:href="#Polka_dots2" patternTransform="matrix(1 0 0 -1 -56.35 -18643.1992)">
</pattern>
<polygon class="st13" points="2791.2,1020.5 2791.2,1154.2 2557.7,1154.2 2557.7,1535.9 3029.1,1535.9 3029.1,1154.2 3029.1,1020.5 
	"/>
<pattern  id="SVGID_12_" xlink:href="#Polka_dots2" patternTransform="matrix(1 0 0 -1 -56.35 -18643.1992)">
</pattern>
<rect x="639" y="664.3" class="st14" width="469.4" height="356.2"/>
<pattern  id="SVGID_13_" xlink:href="#Polka_dots2" patternTransform="matrix(1 0 0 -1 -56.35 -18643.1992)">
</pattern>
<rect x="3197.7" y="2240.7" class="st15" width="469.4" height="576.2"/>
<pattern  id="SVGID_14_" xlink:href="#Polka_dots2" patternTransform="matrix(1 0 0 -1 -56.35 -18643.1992)">
</pattern>
<rect x="3197.7" y="495.8" class="st16" width="469.4" height="394"/>
<pattern  id="SVGID_15_" xlink:href="#Polka_dots2" patternTransform="matrix(1 0 0 -1 -56.35 -18643.1992)">
</pattern>
<rect x="3197.7" y="1" class="st17" width="469.4" height="494.8"/>
<pattern  id="SVGID_16_" xlink:href="#Polka_dots2" patternTransform="matrix(1 0 0 -1 -56.35 -18643.1992)">
</pattern>
<rect x="2557.7" y="1535.9" class="st18" width="471.5" height="435.8"/>
<pattern  id="SVGID_17_" xlink:href="#Polka_dots2" patternTransform="matrix(1 0 0 -1 -56.35 -18643.1992)">
</pattern>
<polygon class="st19" points="2557.7,1971.8 3029.2,1971.8 3030.4,2407.6 2915.8,2407.6 2915.8,2324.1 2557.7,2324.1 2557.7,2088.1 
	"/>
<pattern  id="SVGID_18_" xlink:href="#Polka_dots2" patternTransform="matrix(1 0 0 -1 -56.35 -18643.1992)">
</pattern>
<rect x="1108.4" y="664.3" class="st20" width="425.6" height="356.2"/>
<pattern  id="SVGID_19_" xlink:href="#Polka_dots2" patternTransform="matrix(1 0 0 -1 -56.35 -18643.1992)">
</pattern>
<rect x="1534" y="664.3" class="st21" width="425.6" height="356.2"/>
<pattern  id="SVGID_20_" xlink:href="#Polka_dots2" patternTransform="matrix(1 0 0 -1 -56.35 -18643.1992)">
</pattern>
<rect x="1959.6" y="664.3" class="st22" width="598" height="356.2"/>
<pattern  id="SVGID_21_" xlink:href="#Polka_dots2" patternTransform="matrix(1 0 0 -1 -56.35 -18643.1992)">
</pattern>
<polygon class="st23" points="1,1340.1 1,1790.4 241.1,1790.4 470.4,1790.4 470.4,1900.7 470.4,1790.4 470.4,1340.1 "/>
<rect x="3196" y="626.3" class="st24" width="99.1" height="45"/>
<pattern  id="SVGID_22_" xlink:href="#Polka_dots2-43" patternTransform="matrix(1 0 0 -1 -134.86 -18643.1992)">
</pattern>
<polygon class="st25" points="634,1 533.8,1 1,1 1,415.2 211.3,415.2 211.3,496.6 509.9,495.8 611.3,495.8 634,495.8 "/>
<pattern  id="SVGID_23_" xlink:href="#Polka_dots2-45" patternTransform="matrix(1 0 0 -1 -56.35 -18659.2695)">
</pattern>
<polygon class="st26" points="470.4,496.6 470.4,889.8 1,889.8 1,415.2 211.3,415.2 211.3,496.6 "/>
<rect x="3196" y="671.3" class="st24" width="99.1" height="45"/>
<pattern  id="SVGID_24_" xlink:href="#Polka_dots2" patternTransform="matrix(1 0 0 -1 -56.35 -18643.1992)">
</pattern>
<polygon class="st27" points="1,889.8 1,1340.1 1,1340.1 470.4,1340.1 241.1,1340.1 470.4,1340.1 470.4,889.8 "/>
<pattern  id="SVGID_25_" xlink:href="#Polka_dots2-49" patternTransform="matrix(1 0 0 -1 -61.35 -18643.1992)">
</pattern>
<polygon class="st28" points="1271.9,128.9 1271.9,1 634,1 634,495.8 1271.9,495.8 1371,495.8 1371,128.9 "/>
<pattern  id="SVGID_26_" xlink:href="#Polka_dots2" patternTransform="matrix(1 0 0 -1 -56.35 -18643.1992)">
</pattern>
<polygon class="st29" points="3197.7,889.8 3197.7,1340.1 3437.8,1340.1 3437.8,1439.1 3667.1,1439.1 3667.1,1340.1 3667.1,889.8 
	"/>
<pattern  id="SVGID_27_" xlink:href="#Polka_dots2" patternTransform="matrix(1 0 0 -1 -56.35 -18643.1992)">
</pattern>
<polygon class="st30" points="3548.1,1927.4 3332.1,1927.4 3332.1,1790.4 3197.7,1790.4 3197.7,2240.7 3667.1,2240.7 3667.1,1790.4 
	3548.1,1790.4 "/>
<rect x="1220.4" y="1117.3" class="st31" width="1232.1" height="1572.6"/>
<g>
	<path class="st32" d="M1611.8,1831.4c0-18.4,9.8-30.1,24.7-30.1c5.7,0,11.2,2.5,14.9,6.9l-1.8,2c-3.2-3.9-8-6.2-13.1-6.2
		c-13.5,0-21.7,10.6-21.7,27.5s8.2,27.8,21.3,27.8c6.2,0,10.8-2.5,15.2-7.4l1.8,1.8c-4.4,5.1-9.6,8.3-17.2,8.3
		C1621.7,1861.9,1611.8,1849.9,1611.8,1831.4z"/>
	<path class="st32" d="M1663.4,1831.4c0-18.4,9-30.1,21.6-30.1s21.6,11.7,21.6,30.1s-9,30.5-21.6,30.5S1663.4,1849.9,1663.4,1831.4z
		 M1703.6,1831.4c0-16.8-7.5-27.5-18.6-27.5s-18.6,10.6-18.6,27.5s7.5,27.8,18.6,27.8S1703.6,1848.3,1703.6,1831.4z"/>
	<path class="st32" d="M1719.7,1839.1v-36.7h2.8v36c0,16.1,7.4,20.9,15.6,20.9c8.3,0,15.8-4.8,15.8-20.9v-36h2.7v36.7
		c0,18.1-9.2,22.8-18.4,22.8S1719.7,1857.1,1719.7,1839.1z"/>
	<path class="st32" d="M1775.7,1802.4h16.1c11.5,0,18.8,4.3,18.8,15.1c0,10.3-7.3,15.8-18.8,15.8h-13.3v27.6h-2.8V1802.4z
		 M1790.8,1830.7c10.8,0,16.8-4.3,16.8-13.3c0-9.2-6-12.6-16.8-12.6h-12.2v25.9H1790.8z M1794.3,1832.2l17.2,28.7h-3.4l-17-28.5
		L1794.3,1832.2z"/>
	<path class="st32" d="M1843,1804.9h-20.7v-2.5h44.3v2.5h-20.7v56h-2.8V1804.9z"/>
	<path class="st32" d="M1896.2,1839.1l-20.2-36.8h2.8l11,20c2.8,4.5,5,9.1,7.8,13.8h0.3c2.8-4.7,5.4-9.3,8-13.9l10.6-19.9h2.7
		l-20.3,36.8v21.7h-2.8L1896.2,1839.1z"/>
	<path class="st32" d="M1949.5,1802.4h2.5l20.9,58.5h-3l-12.2-35.1c-2.5-7.1-4.6-13.1-6.7-20.4h-0.4c-2.1,7.3-4.3,13.3-6.7,20.4
		l-12.4,35.1h-2.8L1949.5,1802.4z M1937.6,1837.5h25.9v2.5h-25.9V1837.5z"/>
	<path class="st32" d="M1988.3,1802.4h16.1c11.5,0,18.8,4.3,18.8,15.1c0,10.3-7.3,15.8-18.8,15.8h-13.3v27.6h-2.8V1802.4z
		 M2003.4,1830.7c10.8,0,16.8-4.3,16.8-13.3c0-9.2-6-12.6-16.8-12.6h-12.2v25.9H2003.4z M2006.9,1832.2l17.2,28.7h-3.4l-17-28.5
		L2006.9,1832.2z"/>
	<path class="st32" d="M2039.3,1802.4h13.1c18.1,0,26.2,11.7,26.2,29.1s-8.1,29.4-26.2,29.4h-13.1V1802.4z M2052.1,1858.4
		c16.6,0,23.6-11.5,23.6-26.9s-6.9-26.6-23.6-26.6h-9.9v53.5H2052.1z"/>
</g>
<pattern  id="SVGID_28_" xlink:href="#Polka_dots2-55" patternTransform="matrix(1 0 0 -1 -48.62 -18641.209)">
</pattern>
<polygon class="st33" points="3197.7,1340.1 3437.8,1340.1 3437.8,1439.1 3667.1,1439.1 3667.1,1790.4 3548.1,1790.4 3548.1,1927.4 
	3332.1,1927.4 3332.1,1790.4 3197.7,1790.4 3197.7,1612.6 3257.9,1612.6 3257.9,1511.2 3197.7,1511.2 "/>
<pattern  id="SVGID_29_" xlink:href="#Polka_dots2-57" patternTransform="matrix(1 0 0 -1 -53.22 -18643.1992)">
</pattern>
<polyline class="st34" points="2557.7,2690.9 2557.6,1020.5 2557.7,1154.2 2791.2,1154.2 2791.2,1020.5 3029.1,1020.5 3029.1,664.3 
	2834.2,664.3 2834.2,724.6 2732.8,724.6 2732.8,664.3 2557.6,664.3 2557.7,1154.2 2557.7,1154.2 "/>
<path class="st35" d="M639,2691v-123.2h101.4v-60.2H639v-546.7h101.4v-60.2H639v-204.5h101.4V1636H639v-502.8h101.4v-60.3H639V664.3
	h288v60.3h101.4v-60.3h292.8v60.3h101.4v-60.3h273.5v60.3h101.4v-60.3h498v60.3h101.4v-60.3h335.9v60.3h101.4v-60.3h194.9l0,464.5
	h-60.2v101.5h60.2v363.9h-60.2v101.4h60.2v383.9h-60.2V2181h60.2v360.1h-60.2v101.4h60.2v174.3h168.6v-391.2h60.2v-101.5h-60.2
	v-202.6h60.2v-101.4h-60.2v-407.5h60.2v-101.4h-60.2v-458h60.2V951.7h-60.2V495.8h-224v-60.3h-101.5v60.3h-700.5v-60.3h-101.4v60.3
	h-519.1v-60.3h-101.5v60.3h-303.9v-60.3h-101.5v60.3h-433v-60.3H509.9v60.3h-39.5v266H369v60.3h101.4v357.5H369v60.2h101.4v180.5
	H369v60.2h101.4v699.9H369v60.3h101.4v450.2h-97.9v60.3h97.9v65.7l168.6,1V2691z"/>
</svg>
