<?xml version="1.0" encoding="utf-8"?>
<!-- Generator: Adobe Illustrator 22.1.0, SVG Export Plug-In . SVG Version: 6.00 Build 0)  -->
<svg version="1.1" id="Layer_1" xmlns="http://www.w3.org/2000/svg" xmlns:xlink="http://www.w3.org/1999/xlink" x="0px" y="0px"
	 viewBox="0 0 946.9 587.8" style="enable-background:new 0 0 946.9 587.8;" xml:space="preserve">
<style type="text/css">
	.st0{fill:#2F398E;}
	.st1{fill:#E6E6E6;}
	.st2{fill:#7E7E7E;}
	.st3{fill:none;stroke:#D1FFC9;stroke-width:3.5261;stroke-linecap:round;stroke-linejoin:round;}
	.st4{fill:#808080;}
	.st5{font-family:'Arial-BoldMT';}
	.st6{font-size:16.5085px;}
	.st7{fill:#E6E6E6;stroke:#231F20;stroke-width:0.141;stroke-miterlimit:10;}
	.st8{fill:#FFFFFF;stroke:#B3B3B3;stroke-width:0.2351;stroke-miterlimit:10;}
	.st9{fill:#FFFFFF;stroke:#B3B3B3;stroke-width:8.227492e-02;stroke-miterlimit:10;}
	.st10{fill:#FFFFFF;stroke:#B3B3B3;stroke-width:4.701424e-02;stroke-miterlimit:10;}
	.st11{fill:#278B00;stroke:#B3B3B3;stroke-width:4.701424e-02;stroke-miterlimit:10;}
	.st12{fill:none;stroke:#231F20;stroke-width:0.3644;stroke-miterlimit:10;}
	.st13{fill:none;}
	.st14{fill:none;stroke:#231F20;stroke-width:0.2116;stroke-miterlimit:10;}
	.st15{fill:#231F20;}
	.st16{fill:#D8D8D8;}
	.st17{font-size:16.5775px;}
	.st18{fill:#CD6C32;}
</style>
<title>shitfloors</title>
<polygon class="st0" points="386,189.1 571.8,188.2 572.1,324.1 386.4,325 "/>
<polygon class="st1" points="243.8,189.6 382.2,189 382.6,324.8 244.1,325.5 "/>
<polygon class="st2" points="601.5,233.9 715.5,233.4 715.7,323.9 601.8,324.5 "/>
<path class="st3" d="M268.9,351.5c0.8,2,0.5-2.4,1.1-0.9c0,0.1-1.1,5.6-1.1,5.8c0.8,1.9,6.4-7.8,7.3-5.8c0.1,0.3-7.2,10.8-7,11.1
	c0.9,2.2,11.9-12.6,12.9-10.3c0.1,0.3-5.8,9.8-5.7,10.1c1.2,2.9,12.8-13.2,13.7-10.9c0.3,0.6-16.2,17.3-15.9,18
	c1.3,3.1,15.3-16,16.5-13.2c0.3,0.7-18.3,19.3-18,19.9c1.5,3.5,25.8-24.1,27-21.5c0.4,1-24.7,22.6-24.3,23.6
	c1.1,2.6,26.7-25.6,28-22.4c0.5,1.3-32.9,29-32.5,30c1.5,3.7,34.7-31.6,35.9-28.7c0.4,1-32.1,29.2-31.5,30.6
	c1.5,3.6,38.3-35.9,40-31.9c0.7,1.5-43.4,37-42.8,38.4c1.8,4.2,48.6-44.1,50.3-40.1c0.6,1.4-46.3,40.1-45.6,41.8
	c1.6,3.9,48-42.7,49.4-39.4c0.7,1.7-52.3,44.2-51.6,46c1.7,4.1,56.2-50,57.8-46.1c1,2.4-62.9,52.1-61.8,54.6
	c1.9,4.6,71.1-63.4,73.2-58.4c1,2.4-72.6,58.8-71.5,61.4c1.7,4,72.3-63.2,74-59.1c1,2.4-77,62.8-75.7,66c1.8,4.2,77-69,79.4-63.3
	c1.4,3.3-82.1,67.1-81,69.9c2.3,5.6,91.3-80.6,93.8-74.8c1.3,3-88.9,71.5-87.8,74.1c2.6,6.2,91.6-80.1,93.8-74.9
	c1.3,3.1-100.1,80.2-98.9,83.1c2,4.8,96.3-83.7,98.5-78.5c1.1,2.7-95.8,77.9-94.6,80.7c2.6,6.2,103-90.9,105.7-84.3
	c1.3,3.1-105.3,84.5-103.9,88c2.6,6.2,104.9-92.7,107.7-85.9c1.8,4.2-115.2,90.6-113.5,94.8c2.3,5.6,115.2-99.2,117.5-93.7
	c1.7,4-111.7,89.3-110.1,93.1c2.4,5.7,115.6-101.2,118.4-94.6c1.5,3.7-121.5,95.6-119.7,100c2.7,6.4,120.1-104.3,122.8-97.9
	c1.7,4-129.8,102.2-128.1,106.2c2.7,6.5,133.6-115.4,136.4-108.8c2.2,5.4-133.8,105-132,109.4c2.5,6,131.9-115.5,135.1-107.8
	c2.1,5-136.5,106.5-134.2,112.1c2.7,6.3,137.7-119.6,140.8-112.3c2.2,5.2-142.6,111.9-140.6,116.5c2.5,5.9,145.8-125.7,148.8-118.6
	c2.3,5.5-149.8,117.3-147.6,122.5c2.8,6.6,151-131,154.3-123.1c2.2,5.2-159.6,124.1-157,130.4c3.3,7.8,160.9-138,164-130.8
	c2.9,6.9-168.9,130.2-166.1,136.9c2.8,6.7,164.2-143.5,168.1-134c2.6,6.3-168.9,131.7-166.5,137.6c2.9,6.9,167.1-143.7,170.3-135.9
	c2.5,5.9-171.5,132.8-168.6,139.6c2.9,6.8,177.2-152.6,180.7-144.1c3,7.3-184.3,143.4-181.7,149.7c3.5,8.3,178.8-153,182.1-145.2
	c2.4,5.8-188.5,147.6-186,153.7c4.3,10.3,197.9-167.2,200.8-160.2c2.3,5.5-199.1,154.4-196.1,161.7c4.2,10,198.1-170.8,202.1-161.3
	c3.1,7.3-205.5,158.5-202.4,166c4,9.7,196.5-170.3,200.8-160.1c2.9,6.8-207.7,160.1-204.3,168.4c3.7,8.9,209.2-178.4,212.8-169.8
	c3.2,7.7-214,165.9-211,173.1c3.9,9.3,212.8-181.8,216.6-172.7C493,361.7,272,524.5,275,531.8c3.4,8,218.7-187.5,222.8-177.7
	c3.1,7.3-230.4,178.2-227.4,185.4c4.9,11.8,232.9-199.8,237.3-189.3c3.7,8.9-237.6,184.5-234.4,192c4.3,10.3,230.4-198.5,235-187.5
	c3,7.3-241,185.4-237.4,194.1c3.5,8.4,244.6-208.6,248.8-198.5c3.2,7.8-252.4,192.3-248.3,202.2S520.9,340,525.2,350.4
	c3.4,8.2-258.3,198.1-254.5,207.1c4.3,10.3,251.9-214.3,256.1-204.2c3.3,7.9-258.7,196.5-254.2,207.1
	c3.7,8.9,253.9-217.3,258.5-206.2c3.3,7.8-258.1,198.8-254.4,207.6c5.5,13.2,259.9-224.3,265.2-211.6C545.1,358,271,557,275.5,567.7
	c4.8,11.6,269.4-229.3,273.9-218.5c3.8,9.2-266.6,206.8-263.2,214.9c5.1,12.1,255.8-221,261.1-208.3
	c3.6,8.6-262.8,204.7-259.7,212.1c5.3,12.6,262.8-223.2,267.1-213c4.1,9.9-264.6,201.3-260.1,212.1
	c5.3,12.7,267.8-227.5,272.1-217.1c4.5,10.7-263.9,204.9-260.7,212.5c5.6,13.5,262.1-224.9,267.1-213c3.8,9-269.3,208.5-265.7,217
	c5,12,267.3-228.6,272.1-217.1c4.3,10.2-270.4,207.2-266.5,216.7c4.1,9.9,259.2-221,263.7-210.3c4.1,9.9-264.7,202.5-260.6,212.3
	c5.1,12.1,263.8-224.2,268.2-213.9c3.8,9-261.9,204.1-258.8,211.5c5.2,12.4,259.4-223.7,264.6-211.1c3.6,8.6-260.4,202.5-257,210.6
	c5.3,12.7,263.6-225.9,268.5-214.1c4,9.7-269.2,204.6-264.7,215.3c5.3,12.6,266.9-227.9,271.6-216.6
	c3.6,8.7-264.3,203.7-260.4,213.1c4.7,11.3,255.8-221.7,261.4-208.5c3.5,8.5-257.1,196.8-252.9,206.8
	c4.7,11.2,257.2-219.9,261.8-208.8c3.7,8.9-262.5,203.4-259,211.7c4.8,11.6,257.8-219.7,262.2-209.1
	c3.6,8.6-263.3,201.4-259.2,211.2c4.7,11.3,265.5-226.7,270.2-215.5c4,9.7-263,204.1-259.8,211.8c4.8,11.5,260.1-223,265-211.4
	c3.9,9.4-261.7,203.1-258.3,211.1c5.2,12.4,261.3-223.1,265.9-212.1c4.2,10.1-270.3,206.7-266,216.8c5,12,264.5-227.8,269.8-215.2
	c3.3,8.1-262.2,200.6-257.8,211.2c5.2,12.4,257.2-218.3,261.3-208.4c4.3,10.4-258.4,199.7-255,207.8c5,12.1,257.2-220.9,262.1-209.1
	c3.5,8.3-260,201.9-256.9,209.3c5.2,12.4,255.9-216.9,259.9-207.3c4,9.6-261.9,201.1-257.8,210.8c4.2,10.1,262-226.6,267.6-213.4
	c3.4,8.1-265,205.2-261.5,213.4c4.8,11.5,262.7-222.5,266.8-212.7c3.8,9-263.7,204.1-260.1,212.6c4.1,9.9,261.8-221.8,265.9-212.1
	c4.3,10.2-263.9,203.5-260.2,212.4c5.4,13,256.3-216.2,260-207.4c4.2,9.9-256.3,197.7-252.7,206.3C436,578,681.9,351.1,686.2,361.4
	c3,7.1-251.9,193.4-248.2,202.1c5.1,12.3,237.9-201.5,241.5-192.6c3.3,7.9-244,188.2-240.5,196.6c3.9,9.3,237.6-204,242.1-193.1
	c2.7,6.5-230.5,179.5-227.7,186.3c4.8,11.4,222.4-193.3,227.4-181.3c3.2,7.6-228.6,177.9-225.9,184.4
	c3.4,8.3,227.3-193.8,231.2-184.4c2.7,6.4-231.4,177.1-227.7,186c3.7,8.9,218.4-187,222.4-177.4c3,7.2-216.6,169.2-213.9,175.8
	c4.6,11.1,212.7-180.2,216-172.3c3.6,8.5-211.7,163.1-208.3,171.3c3.3,7.9,208-176,211.2-168.4c2.6,6.3-206.5,160.7-203.7,167.5
	c3.6,8.7,195.4-167.1,198.9-158.6c3.3,8-203.2,155.7-199.7,164c4.3,10.3,198-170.5,202-161.1c2.9,7-193.2,149.8-190.2,157.1
	c4.2,10.2,190.6-162.2,193.8-154.6c3.2,7.7-191.8,148.7-188.9,155.6c3.5,8.4,180.9-157.5,185-147.6c2.4,5.8-180,140.9-177.5,147
	C509,571.9,682,410.1,686,419.7c3,7-177.2,137.7-174.6,143.9c3.3,7.9,165.3-142.3,168.6-134.5c2.6,6.1-162.9,126.7-160.3,133.1
	c3.5,8.4,160.8-137.2,163.6-130.5c2.1,5-166.2,129.1-163.6,135.3S682.4,427.8,685.4,435c2.3,5.4-154.2,121.5-152.3,126.2
	c3.5,8.4,144.4-125.9,147.8-117.9c1.8,4.3-145.3,114.1-143,119.6c3.3,7.9,143.7-123.6,146.5-116.9c2.1,5-142.8,113.1-141.1,117.2
	c3.3,8,135.9-116.6,138.4-110.4c1.8,4.4-130.7,105-129.2,108.6c2.4,5.7,131.4-113.6,134.2-107c2.3,5.5-135.3,105.7-133.2,110.8
	c3.2,7.7,128.6-110.7,131.1-104.6c1.6,3.9-121,96.9-119.4,100.8c2.2,5.3,117.9-103.9,121-96.5c1.7,4.1-121.4,96.4-120,100
	c2.3,5.4,115-101.1,117.9-94c1.6,3.8-110.3,89.2-109,92.3c2.8,6.7,105-92.8,107.9-86c1.8,4.3-104.4,83.2-102.9,86.8
	c2.7,6.4,98.8-87.2,101.5-80.9c1.5,3.6-94.5,74.6-93,78.3c2,4.8,94.5-82,96.6-77c1.6,3.8-95.5,77.1-94,80.5
	c2.5,5.9,89-76.6,90.8-72.4c1,2.4-82.3,66.8-81.2,69.3c1.7,4,78-69.4,80.3-64c1.2,2.8-76.8,63.1-75.7,65.9
	c2,4.7,78.3-69.8,80.6-64.3c1,2.5-73.3,58.8-72.1,61.6c2.1,5,66.5-59.1,68.4-54.6c0.9,2.1-71.5,57.8-70.5,60.3
	c2,4.8,70.3-61.8,72.1-57.5c0.9,2.2-66.2,55.1-65.4,57c1.5,3.5,63.5-57.1,65.5-52.3c1,2.3-59.2,49.9-58.4,51.8
	c1.7,4,51.2-46.3,52.9-42.2c0.7,1.7-48.5,41.3-47.8,43c1.3,3.2,48.6-43.2,50-39.9c0.6,1.4-39.9,34.7-39.3,36.2
	c1.5,3.5,39.1-35.9,40.6-32.4c0.5,1.2-35.2,31.6-34.8,32.7c1.4,3.5,32.8-31.2,34.3-27.4c0.4,0.9-30,27.6-29.5,29
	c1.2,2.8,33-30.2,34.2-27.3c0.4,1.1-26.3,24.7-25.9,25.8c1,2.5,20.1-20.3,21.5-17.1c0.2,0.5-12.3,14.3-12.1,14.7
	c1,2.4,11.3-11.9,12.2-9.7c0.2,0.4-9.5,11.7-9.4,12.1c1.1,2.6,9-10,9.9-7.9c0,0.1,0.7,4.6,0.7,4.7c1,2.4,1.2-4.1,2.2-1.8
	c0.1,0.2-3.7,8-3.7,8.2c0.9,2.2,4.4-6.5,5.4-4.3c0,0.1-0.1,4.1-0.1,4.2c0.8,1.8-0.6-1.6,0.1,0"/>
<text transform="matrix(0.7239 0 0 1 451.7695 460.3447)" class="st4 st5 st6">Courtyard</text>
<rect x="574.2" y="236.6" class="st7" width="24.9" height="87.7"/>
<path class="st8" d="M582.9,505.8h34.3c0.7,0,1.3,0.8,1.3,1.8v1.5c0,1-0.6,1.8-1.3,1.8h-34.3c-0.7,0-1.3-0.8-1.3-1.8v-1.5
	C581.6,506.6,582.1,505.8,582.9,505.8z"/>
<path class="st8" d="M582.9,485.4h34.3c0.7,0,1.3,0.8,1.3,1.8v1.5c0,1-0.6,1.8-1.3,1.8h-34.3c-0.7,0-1.3-0.8-1.3-1.8v-1.5
	C581.6,486.2,582.2,485.4,582.9,485.4z"/>
<path class="st8" d="M582.1,489.2h35.8c0.8,0,1.4,0.9,1.4,2V505c0,1.1-0.6,2-1.4,2h-35.8c-0.8,0-1.4-0.9-1.4-2v-13.8
	C580.7,490.1,581.3,489.2,582.1,489.2z"/>
<path class="st8" d="M299.1,539.8h34.3c0.7,0,1.3,0.8,1.3,1.8v1.5c0,1-0.6,1.8-1.3,1.8h-34.3c-0.7,0-1.3-0.8-1.3-1.8v-1.5
	C297.8,540.6,298.4,539.8,299.1,539.8z"/>
<path class="st8" d="M299.1,519.4h34.3c0.7,0,1.3,0.8,1.3,1.8v1.5c0,1-0.6,1.8-1.3,1.8h-34.3c-0.7,0-1.3-0.8-1.3-1.8v-1.5
	C297.8,520.2,298.4,519.4,299.1,519.4z"/>
<path class="st8" d="M298.3,523.2h35.8c0.8,0,1.5,0.9,1.5,2v13.8c0,1.1-0.6,2-1.5,2h-35.8c-0.8,0-1.5-0.9-1.5-2v-13.8
	C296.9,524.1,297.5,523.2,298.3,523.2z"/>
<path class="st8" d="M299.2,503.2h34.3c0.7,0,1.3,0.8,1.3,1.8v1.5c0,1-0.6,1.8-1.3,1.8h-34.3c-0.7,0-1.3-0.8-1.3-1.8V505
	C297.9,504,298.5,503.2,299.2,503.2z"/>
<path class="st8" d="M299.2,482.8h34.3c0.7,0,1.3,0.8,1.3,1.8v1.5c0,1-0.6,1.8-1.3,1.8h-34.3c-0.7,0-1.3-0.8-1.3-1.8v-1.5
	C297.9,483.6,298.5,482.8,299.2,482.8z"/>
<path class="st8" d="M298.4,486.6h35.8c0.8,0,1.5,0.9,1.5,2v13.8c0,1.1-0.6,2-1.5,2h-35.8c-0.8,0-1.5-0.9-1.5-2v-13.8
	C297,487.5,297.6,486.6,298.4,486.6z"/>
<path class="st8" d="M628,506.1h34.3c0.7,0,1.3,0.8,1.3,1.8v1.5c0,1-0.6,1.8-1.3,1.8H628c-0.7,0-1.3-0.8-1.3-1.8v-1.5
	C626.7,506.9,627.2,506.1,628,506.1z"/>
<path class="st8" d="M628,485.7h34.3c0.7,0,1.3,0.8,1.3,1.8v1.5c0,1-0.6,1.8-1.3,1.8H628c-0.7,0-1.3-0.8-1.3-1.8v-1.5
	C626.7,486.5,627.2,485.7,628,485.7z"/>
<path class="st8" d="M627.2,489.8l35.8-0.2c0.8,0,1.5,0.9,1.5,2l0,13.8c0,1.1-0.6,2-1.4,2l-35.8,0.2c-0.8,0-1.5-0.9-1.5-2l0-13.8
	C625.7,490.7,626.4,489.8,627.2,489.8z"/>
<path class="st8" d="M583.3,543h34.3c0.7,0,1.3,0.8,1.3,1.8v1.5c0,1-0.6,1.8-1.3,1.8h-34.3c-0.7,0-1.3-0.8-1.3-1.8v-1.5
	C582,543.8,582.6,543,583.3,543z"/>
<path class="st8" d="M583.3,522.7h34.3c0.7,0,1.3,0.8,1.3,1.8v1.5c0,1-0.6,1.8-1.3,1.8h-34.3c-0.7,0-1.3-0.8-1.3-1.8v-1.5
	C582,523.5,582.6,522.7,583.3,522.7z"/>
<path class="st8" d="M582.5,526.5h35.8c0.8,0,1.4,0.9,1.4,2v13.8c0,1.1-0.6,2-1.4,2h-35.8c-0.8,0-1.4-0.9-1.4-2v-13.8
	C581.1,527.4,581.7,526.5,582.5,526.5z"/>
<path class="st8" d="M345.2,504.2h34.3c0.7,0,1.3,0.8,1.3,1.8v1.5c0,1-0.6,1.8-1.3,1.8h-34.3c-0.7,0-1.3-0.8-1.3-1.8V506
	C343.9,505,344.5,504.2,345.2,504.2z"/>
<path class="st8" d="M345.2,483.8h34.3c0.7,0,1.3,0.8,1.3,1.8v1.5c0,1-0.6,1.8-1.3,1.8h-34.3c-0.7,0-1.3-0.8-1.3-1.8v-1.5
	C343.9,484.6,344.5,483.8,345.2,483.8z"/>
<path class="st8" d="M344.4,487.6h35.8c0.8,0,1.5,0.9,1.5,2v13.8c0,1.1-0.6,2-1.5,2h-35.8c-0.8,0-1.5-0.9-1.5-2v-13.8
	C343,488.5,343.6,487.6,344.4,487.6z"/>
<path class="st8" d="M345.6,541.4h34.3c0.7,0,1.3,0.8,1.3,1.8v1.5c0,1-0.6,1.8-1.3,1.8h-34.3c-0.7,0-1.3-0.8-1.3-1.8v-1.5
	C344.3,542.2,344.9,541.4,345.6,541.4z"/>
<path class="st8" d="M345.6,521.1h34.3c0.7,0,1.3,0.8,1.3,1.8v1.5c0,1-0.6,1.8-1.3,1.8h-34.3c-0.7,0-1.3-0.8-1.3-1.8v-1.5
	C344.3,521.9,344.9,521.1,345.6,521.1z"/>
<path class="st8" d="M344.9,524.9h35.8c0.8,0,1.5,0.9,1.5,2v13.8c0,1.1-0.6,2-1.5,2h-35.8c-0.8,0-1.5-0.9-1.5-2v-13.8
	C343.4,525.8,344.1,524.9,344.9,524.9z"/>
<path class="st8" d="M628.4,543.3h34.3c0.7,0,1.3,0.8,1.3,1.8v1.5c0,1-0.6,1.8-1.3,1.8h-34.3c-0.7,0-1.3-0.8-1.3-1.8v-1.5
	C627.1,544.1,627.7,543.3,628.4,543.3z"/>
<path class="st8" d="M628.4,523h34.3c0.7,0,1.3,0.8,1.3,1.8v1.5c0,1-0.6,1.8-1.3,1.8h-34.3c-0.7,0-1.3-0.8-1.3-1.8v-1.5
	C627.1,523.8,627.7,523,628.4,523z"/>
<path class="st8" d="M627.6,526.8h35.8c0.8,0,1.4,0.9,1.4,2v13.8c0,1.1-0.6,2-1.4,2h-35.8c-0.8,0-1.4-0.9-1.4-2v-13.8
	C626.2,527.7,626.8,526.8,627.6,526.8z"/>
<polygon class="st9" points="314.3,377.8 310.1,377.8 306.7,381.2 305.4,386.8 306.7,392.4 310.1,395.8 314.3,395.8 317.8,392.4 
	319.1,386.8 317.8,381.2 "/>
<polygon class="st10" points="324.6,381.6 322.2,381.6 320.2,383.6 319.4,386.8 320.2,390 322.2,392 324.6,392 326.6,390 
	327.3,386.8 326.6,383.6 "/>
<polygon class="st10" points="313.8,366.8 311.4,366.8 309.4,368.7 308.6,371.9 309.4,375.1 311.4,377.1 313.8,377.1 315.8,375.1 
	316.5,371.9 315.8,368.7 "/>
<polygon class="st10" points="302,381.6 299.6,381.6 297.6,383.6 296.9,386.8 297.6,390 299.6,392 302,392 304,390 304.8,386.8 
	304,383.6 "/>
<polygon class="st10" points="313.1,396.5 310.7,396.5 308.7,398.5 308,401.7 308.7,404.9 310.7,406.9 313.1,406.9 315.1,404.9 
	315.9,401.7 315.1,398.5 "/>
<polygon class="st11" points="299.2,414.9 297.9,414.9 296.8,415.9 296.4,417.7 296.8,419.4 297.9,420.4 299.2,420.4 300.3,419.4 
	300.7,417.7 300.3,415.9 "/>
<polygon class="st11" points="303.3,414.9 302,414.9 301,415.9 300.6,417.7 301,419.4 302,420.4 303.3,420.4 304.4,419.4 
	304.8,417.7 304.4,415.9 "/>
<polygon class="st11" points="307.6,414.9 306.3,414.9 305.2,415.9 304.8,417.7 305.2,419.4 306.3,420.4 307.6,420.4 308.6,419.4 
	309,417.7 308.6,415.9 "/>
<polygon class="st11" points="311.8,414.9 310.5,414.9 309.4,415.9 309,417.7 309.4,419.4 310.5,420.4 311.8,420.4 312.8,419.4 
	313.2,417.7 312.8,415.9 "/>
<polygon class="st11" points="315.8,414.9 314.5,414.9 313.4,415.9 313,417.7 313.4,419.4 314.5,420.4 315.8,420.4 316.8,419.4 
	317.3,417.7 316.8,415.9 "/>
<polygon class="st11" points="319.9,414.9 318.6,414.9 317.5,415.9 317.2,417.7 317.5,419.4 318.6,420.4 319.9,420.4 321,419.4 
	321.4,417.7 321,415.9 "/>
<polygon class="st11" points="324.2,414.9 322.9,414.9 321.8,415.9 321.4,417.7 321.8,419.4 322.9,420.4 324.2,420.4 325.2,419.4 
	325.6,417.7 325.2,415.9 "/>
<polygon class="st11" points="328.4,414.9 327,414.9 326,415.9 325.6,417.7 326,419.4 327,420.4 328.4,420.4 329.4,419.4 
	329.8,417.7 329.4,415.9 "/>
<polygon class="st11" points="367.4,408.5 367.4,410.3 368.1,411.7 369.4,412.3 370.6,411.7 371.4,410.3 371.4,408.5 370.6,407 
	369.4,406.4 368.1,407 "/>
<polygon class="st11" points="367.4,402.8 367.4,404.6 368.1,406 369.4,406.6 370.6,406 371.4,404.6 371.4,402.8 370.6,401.3 
	369.4,400.7 368.1,401.3 "/>
<polygon class="st11" points="367.4,396.9 367.4,398.7 368.1,400.2 369.4,400.7 370.6,400.2 371.4,398.7 371.4,396.9 370.6,395.4 
	369.4,394.9 368.1,395.4 "/>
<polygon class="st11" points="367.4,391.1 367.4,392.9 368.1,394.4 369.4,394.9 370.6,394.4 371.4,392.9 371.4,391.1 370.6,389.6 
	369.4,389.1 368.1,389.6 "/>
<polygon class="st11" points="367.4,385.6 367.4,387.4 368.1,388.8 369.4,389.4 370.6,388.8 371.4,387.4 371.4,385.6 370.6,384.1 
	369.4,383.5 368.1,384.1 "/>
<polygon class="st11" points="367.4,379.8 367.4,381.7 368.1,383.1 369.4,383.7 370.6,383.1 371.4,381.7 371.4,379.8 370.6,378.4 
	369.4,377.8 368.1,378.4 "/>
<polygon class="st11" points="367.4,374 367.4,375.8 368.1,377.2 369.4,377.8 370.6,377.2 371.4,375.8 371.4,374 370.6,372.5 
	369.4,372 368.1,372.5 "/>
<polygon class="st11" points="367.4,368.2 367.4,370 368.1,371.5 369.4,372 370.6,371.5 371.4,370 371.4,368.2 370.6,366.7 
	369.4,366.2 368.1,366.7 "/>
<polygon class="st11" points="332.5,414.9 331.2,414.9 330.2,415.9 329.8,417.7 330.2,419.4 331.2,420.4 332.5,420.4 333.6,419.4 
	334,417.7 333.6,415.9 "/>
<polygon class="st11" points="336.7,414.9 335.3,414.9 334.3,415.9 333.9,417.7 334.3,419.4 335.3,420.4 336.7,420.4 337.7,419.4 
	338.1,417.7 337.7,415.9 "/>
<polygon class="st11" points="340.9,414.9 339.6,414.9 338.5,415.9 338.1,417.7 338.5,419.4 339.6,420.4 340.9,420.4 342,419.4 
	342.4,417.7 342,415.9 "/>
<polygon class="st11" points="345.1,414.9 343.8,414.9 342.7,415.9 342.3,417.7 342.7,419.4 343.8,420.4 345.1,420.4 346.2,419.4 
	346.5,417.7 346.2,415.9 "/>
<polygon class="st11" points="349.1,414.9 347.8,414.9 346.7,415.9 346.3,417.7 346.7,419.4 347.8,420.4 349.1,420.4 350.2,419.4 
	350.6,417.7 350.2,415.9 "/>
<polygon class="st11" points="353.2,414.9 351.9,414.9 350.9,415.9 350.5,417.7 350.9,419.4 351.9,420.4 353.2,420.4 354.3,419.4 
	354.7,417.7 354.3,415.9 "/>
<polygon class="st11" points="357.5,414.9 356.2,414.9 355.1,415.9 354.7,417.7 355.1,419.4 356.2,420.4 357.5,420.4 358.5,419.4 
	359,417.7 358.5,415.9 "/>
<polygon class="st11" points="361.7,414.9 360.4,414.9 359.3,415.9 358.9,417.7 359.3,419.4 360.4,420.4 361.7,420.4 362.7,419.4 
	363.1,417.7 362.7,415.9 "/>
<polygon class="st11" points="401.1,541.9 401.1,543.7 401.9,545.2 403.1,545.7 404.4,545.2 405.1,543.7 405.1,541.9 404.4,540.4 
	403.1,539.8 401.9,540.4 "/>
<polygon class="st11" points="401.1,536.2 401.1,538 401.9,539.4 403.1,540 404.4,539.4 405.1,538 405.1,536.2 404.4,534.7 
	403.1,534.1 401.9,534.7 "/>
<polygon class="st11" points="401.1,530.3 401.1,532.1 401.9,533.6 403.1,534.1 404.4,533.6 405.1,532.1 405.1,530.3 404.4,528.8 
	403.1,528.3 401.9,528.8 "/>
<polygon class="st11" points="401.1,524.5 401.1,526.3 401.9,527.8 403.1,528.3 404.4,527.8 405.1,526.3 405.1,524.5 404.4,523 
	403.1,522.5 401.9,523 "/>
<polygon class="st11" points="401.1,519 401.1,520.8 401.9,522.2 403.1,522.8 404.4,522.2 405.1,520.8 405.1,519 404.4,517.5 
	403.1,516.9 401.9,517.5 "/>
<polygon class="st11" points="401.1,513.3 401.1,515.1 401.9,516.5 403.1,517.1 404.4,516.5 405.1,515.1 405.1,513.3 404.4,511.8 
	403.1,511.2 401.9,511.8 "/>
<polygon class="st11" points="401.1,507.4 401.1,509.2 401.9,510.7 403.1,511.2 404.4,510.7 405.1,509.2 405.1,507.4 404.4,505.9 
	403.1,505.4 401.9,505.9 "/>
<polygon class="st11" points="401.1,501.6 401.1,503.4 401.9,504.9 403.1,505.4 404.4,504.9 405.1,503.4 405.1,501.6 404.4,500.1 
	403.1,499.6 401.9,500.1 "/>
<polygon class="st11" points="401.1,495.8 401.1,497.7 401.9,499.1 403.1,499.7 404.4,499.1 405.1,497.7 405.1,495.8 404.4,494.4 
	403.1,493.8 401.9,494.4 "/>
<polygon class="st11" points="401.1,490.1 401.1,492 401.9,493.4 403.1,494 404.4,493.4 405.1,492 405.1,490.1 404.4,488.7 
	403.1,488.1 401.9,488.7 "/>
<polygon class="st11" points="401.1,484.3 401.1,486.1 401.9,487.6 403.1,488.1 404.4,487.6 405.1,486.1 405.1,484.3 404.4,482.8 
	403.1,482.3 401.9,482.8 "/>
<polygon class="st11" points="401.1,478.5 401.1,480.3 401.9,481.8 403.1,482.3 404.4,481.8 405.1,480.3 405.1,478.5 404.4,477 
	403.1,476.5 401.9,477 "/>
<polygon class="st11" points="564.4,541.9 564.4,543.7 565.2,545.2 566.5,545.7 567.7,545.2 568.5,543.7 568.5,541.9 567.7,540.4 
	566.5,539.8 565.2,540.4 "/>
<polygon class="st11" points="564.4,536.2 564.4,538 565.2,539.4 566.5,540 567.7,539.4 568.5,538 568.5,536.2 567.7,534.7 
	566.5,534.1 565.2,534.7 "/>
<polygon class="st11" points="564.4,530.3 564.4,532.1 565.2,533.6 566.5,534.1 567.7,533.6 568.5,532.1 568.5,530.3 567.7,528.8 
	566.5,528.3 565.2,528.8 "/>
<polygon class="st11" points="564.4,524.5 564.4,526.3 565.2,527.8 566.5,528.3 567.7,527.8 568.5,526.3 568.5,524.5 567.7,523 
	566.5,522.5 565.2,523 "/>
<polygon class="st11" points="564.4,519 564.4,520.8 565.2,522.2 566.5,522.8 567.7,522.2 568.5,520.8 568.5,519 567.7,517.5 
	566.5,516.9 565.2,517.5 "/>
<polygon class="st11" points="564.4,513.3 564.4,515.1 565.2,516.5 566.5,517.1 567.7,516.5 568.5,515.1 568.5,513.3 567.7,511.8 
	566.5,511.2 565.2,511.8 "/>
<polygon class="st11" points="564.4,507.4 564.4,509.2 565.2,510.7 566.5,511.2 567.7,510.7 568.5,509.2 568.5,507.4 567.7,505.9 
	566.5,505.4 565.2,505.9 "/>
<polygon class="st11" points="564.4,501.6 564.4,503.4 565.2,504.9 566.5,505.4 567.7,504.9 568.5,503.4 568.5,501.6 567.7,500.1 
	566.5,499.6 565.2,500.1 "/>
<polygon class="st11" points="564.4,495.8 564.4,497.7 565.2,499.1 566.5,499.7 567.7,499.1 568.5,497.7 568.5,495.8 567.7,494.4 
	566.5,493.8 565.2,494.4 "/>
<polygon class="st11" points="564.4,490.1 564.4,492 565.2,493.4 566.5,494 567.7,493.4 568.5,492 568.5,490.1 567.7,488.7 
	566.5,488.1 565.2,488.7 "/>
<polygon class="st11" points="564.4,484.3 564.4,486.1 565.2,487.6 566.5,488.1 567.7,487.6 568.5,486.1 568.5,484.3 567.7,482.8 
	566.5,482.3 565.2,482.8 "/>
<polygon class="st11" points="564.4,478.5 564.4,480.3 565.2,481.8 566.5,482.3 567.7,481.8 568.5,480.3 568.5,478.5 567.7,477 
	566.5,476.5 565.2,477 "/>
<polygon class="st11" points="582.9,459.5 581.6,459.5 580.5,460.6 580.1,462.3 580.5,464.1 581.6,465.1 582.9,465.1 583.9,464.1 
	584.3,462.3 583.9,460.6 "/>
<polygon class="st11" points="587,459.5 585.7,459.5 584.6,460.6 584.2,462.3 584.6,464.1 585.7,465.1 587,465.1 588.1,464.1 
	588.5,462.3 588.1,460.6 "/>
<polygon class="st11" points="591.3,459.5 589.9,459.5 588.9,460.6 588.5,462.3 588.9,464.1 589.9,465.1 591.3,465.1 592.3,464.1 
	592.7,462.3 592.3,460.6 "/>
<polygon class="st11" points="595.4,459.5 594.1,459.5 593.1,460.6 592.7,462.3 593.1,464.1 594.1,465.1 595.4,465.1 596.5,464.1 
	596.9,462.3 596.5,460.6 "/>
<polygon class="st11" points="599.5,459.5 598.2,459.5 597.1,460.6 596.7,462.3 597.1,464.1 598.2,465.1 599.5,465.1 600.5,464.1 
	600.9,462.3 600.5,460.6 "/>
<polygon class="st11" points="603.6,459.5 602.3,459.5 601.2,460.6 600.8,462.3 601.2,464.1 602.3,465.1 603.6,465.1 604.7,464.1 
	605,462.3 604.7,460.6 "/>
<polygon class="st11" points="607.8,459.5 606.5,459.5 605.5,460.6 605.1,462.3 605.5,464.1 606.5,465.1 607.8,465.1 608.9,464.1 
	609.3,462.3 608.9,460.6 "/>
<polygon class="st11" points="612,459.5 610.7,459.5 609.7,460.6 609.3,462.3 609.7,464.1 610.7,465.1 612,465.1 613.1,464.1 
	613.5,462.3 613.1,460.6 "/>
<polygon class="st11" points="616.2,459.5 614.9,459.5 613.8,460.6 613.4,462.3 613.8,464.1 614.9,465.1 616.2,465.1 617.3,464.1 
	617.7,462.3 617.3,460.6 "/>
<polygon class="st11" points="620.3,459.5 619,459.5 618,460.6 617.5,462.3 618,464.1 619,465.1 620.3,465.1 621.4,464.1 
	621.8,462.3 621.4,460.6 "/>
<polygon class="st11" points="624.6,459.5 623.3,459.5 622.2,460.6 621.8,462.3 622.2,464.1 623.3,465.1 624.6,465.1 625.6,464.1 
	626,462.3 625.6,460.6 "/>
<polygon class="st11" points="628.8,459.5 627.5,459.5 626.4,460.6 626,462.3 626.4,464.1 627.5,465.1 628.8,465.1 629.8,464.1 
	630.2,462.3 629.8,460.6 "/>
<polygon class="st11" points="632.8,459.5 631.5,459.5 630.4,460.6 630,462.3 630.4,464.1 631.5,465.1 632.8,465.1 633.8,464.1 
	634.2,462.3 633.8,460.6 "/>
<polygon class="st11" points="636.9,459.5 635.6,459.5 634.5,460.6 634.1,462.3 634.5,464.1 635.6,465.1 636.9,465.1 638,464.1 
	638.4,462.3 638,460.6 "/>
<polygon class="st11" points="641.2,459.5 639.8,459.5 638.8,460.6 638.4,462.3 638.8,464.1 639.8,465.1 641.2,465.1 642.2,464.1 
	642.6,462.3 642.2,460.6 "/>
<polygon class="st11" points="645.3,459.5 644,459.5 643,460.6 642.6,462.3 643,464.1 644,465.1 645.3,465.1 646.4,464.1 
	646.8,462.3 646.4,460.6 "/>
<polygon class="st11" points="636.9,459.5 635.5,459.5 634.5,460.6 634.1,462.3 634.5,464.1 635.5,465.1 636.9,465.1 637.9,464.1 
	638.3,462.3 637.9,460.6 "/>
<polygon class="st11" points="641,459.5 639.7,459.5 638.6,460.6 638.2,462.3 638.6,464.1 639.7,465.1 641,465.1 642,464.1 
	642.5,462.3 642,460.6 "/>
<polygon class="st11" points="645.2,459.5 643.9,459.5 642.9,460.6 642.5,462.3 642.9,464.1 643.9,465.1 645.2,465.1 646.3,464.1 
	646.7,462.3 646.3,460.6 "/>
<polygon class="st11" points="649.4,459.5 648.1,459.5 647,460.6 646.7,462.3 647,464.1 648.1,465.1 649.4,465.1 650.5,464.1 
	650.9,462.3 650.5,460.6 "/>
<polygon class="st11" points="653.4,459.5 652.1,459.5 651.1,460.6 650.7,462.3 651.1,464.1 652.1,465.1 653.4,465.1 654.5,464.1 
	654.9,462.3 654.5,460.6 "/>
<polygon class="st11" points="657.6,459.5 656.3,459.5 655.2,460.6 654.8,462.3 655.2,464.1 656.3,465.1 657.6,465.1 658.6,464.1 
	659,462.3 658.6,460.6 "/>
<polygon class="st11" points="661.8,459.5 660.5,459.5 659.5,460.6 659,462.3 659.5,464.1 660.5,465.1 661.8,465.1 662.9,464.1 
	663.3,462.3 662.9,460.6 "/>
<polygon class="st11" points="666,459.5 664.7,459.5 663.6,460.6 663.2,462.3 663.6,464.1 664.7,465.1 666,465.1 667.1,464.1 
	667.5,462.3 667.1,460.6 "/>
<polygon class="st11" points="365.8,415.1 364.5,415.1 363.4,416.2 363,417.9 363.4,419.6 364.5,420.7 365.8,420.7 366.9,419.6 
	367.3,417.9 366.9,416.2 "/>
<polygon class="st11" points="369.9,412.4 368.6,412.4 367.6,413.4 367.2,415.1 367.6,416.9 368.6,417.9 369.9,417.9 371,416.9 
	371.4,415.1 371,413.4 "/>
<polygon class="st9" points="347.4,379.1 343.1,379.1 339.7,382.6 338.4,388.1 339.7,393.7 343.1,397.2 347.4,397.2 350.8,393.7 
	352.1,388.1 350.8,382.6 "/>
<polygon class="st10" points="357.6,383 355.2,383 353.2,384.9 352.5,388.1 353.2,391.4 355.2,393.3 357.6,393.3 359.6,391.4 
	360.4,388.1 359.6,384.9 "/>
<polygon class="st10" points="346.8,368.1 344.4,368.1 342.4,370.1 341.7,373.3 342.4,376.5 344.4,378.5 346.8,378.5 348.8,376.5 
	349.5,373.3 348.8,370.1 "/>
<polygon class="st10" points="335.1,383 332.6,383 330.7,384.9 329.9,388.1 330.7,391.4 332.6,393.3 335.1,393.3 337,391.4 
	337.8,388.1 337,384.9 "/>
<polygon class="st10" points="346.1,397.8 343.7,397.8 341.7,399.8 341,403 341.7,406.2 343.7,408.2 346.1,408.2 348.1,406.2 
	348.9,403 348.1,399.8 "/>
<polygon class="st9" points="621.3,377.8 617.1,377.8 613.7,381.2 612.4,386.8 613.7,392.4 617.1,395.8 621.3,395.8 624.8,392.4 
	626.1,386.8 624.8,381.2 "/>
<polygon class="st10" points="631.6,381.6 629.2,381.6 627.2,383.6 626.4,386.8 627.2,390 629.2,392 631.6,392 633.6,390 
	634.3,386.8 633.6,383.6 "/>
<polygon class="st10" points="620.8,366.8 618.4,366.8 616.4,368.7 615.6,371.9 616.4,375.1 618.4,377.1 620.8,377.1 622.8,375.1 
	623.5,371.9 622.8,368.7 "/>
<polygon class="st10" points="609,381.6 606.6,381.6 604.6,383.6 603.9,386.8 604.6,390 606.6,392 609,392 611,390 611.8,386.8 
	611,383.6 "/>
<polygon class="st10" points="620.1,396.5 617.7,396.5 615.7,398.5 615,401.7 615.7,404.9 617.7,406.9 620.1,406.9 622.1,404.9 
	622.8,401.7 622.1,398.5 "/>
<polygon class="st9" points="654.4,379.1 650.1,379.1 646.7,382.6 645.4,388.1 646.7,393.7 650.1,397.2 654.4,397.2 657.8,393.7 
	659.1,388.1 657.8,382.6 "/>
<polygon class="st10" points="664.6,383 662.2,383 660.2,384.9 659.5,388.1 660.2,391.4 662.2,393.3 664.6,393.3 666.6,391.4 
	667.4,388.1 666.6,384.9 "/>
<polygon class="st10" points="653.8,368.1 651.4,368.1 649.4,370.1 648.7,373.3 649.4,376.5 651.4,378.5 653.8,378.5 655.8,376.5 
	656.5,373.3 655.8,370.1 "/>
<polygon class="st10" points="642.1,383 639.6,383 637.7,384.9 636.9,388.1 637.7,391.4 639.6,393.3 642.1,393.3 644,391.4 
	644.8,388.1 644,384.9 "/>
<polygon class="st10" points="653.1,397.8 650.7,397.8 648.7,399.8 648,403 648.7,406.2 650.7,408.2 653.1,408.2 655.1,406.2 
	655.9,403 655.1,399.8 "/>
<polygon class="st9" points="588,377.5 583.8,377.5 580.3,380.9 579,386.5 580.3,392 583.8,395.5 588,395.5 591.4,392 592.7,386.5 
	591.4,380.9 "/>
<polygon class="st10" points="598.3,381.3 595.8,381.3 593.8,383.3 593.1,386.5 593.8,389.7 595.8,391.7 598.3,391.7 600.2,389.7 
	601,386.5 600.2,383.3 "/>
<polygon class="st10" points="587.5,366.4 585,366.4 583,368.4 582.3,371.6 583,374.8 585,376.8 587.5,376.8 589.4,374.8 
	590.2,371.6 589.4,368.4 "/>
<polygon class="st10" points="575.7,381.3 573.3,381.3 571.3,383.3 570.5,386.5 571.3,389.7 573.3,391.7 575.7,391.7 577.7,389.7 
	578.4,386.5 577.7,383.3 "/>
<polygon class="st10" points="586.8,396.1 584.3,396.1 582.4,398.1 581.6,401.3 582.4,404.5 584.3,406.5 586.8,406.5 588.8,404.5 
	589.5,401.3 588.8,398.1 "/>
<polygon class="st9" points="552.9,377.4 548.6,377.4 545.2,380.9 543.9,386.4 545.2,392 548.6,395.4 552.9,395.4 556.3,392 
	557.6,386.4 556.3,380.9 "/>
<polygon class="st10" points="563.1,381.2 560.7,381.2 558.7,383.2 558,386.4 558.7,389.6 560.7,391.6 563.1,391.6 565.1,389.6 
	565.9,386.4 565.1,383.2 "/>
<polygon class="st10" points="552.3,366.4 549.9,366.4 547.9,368.4 547.2,371.6 547.9,374.8 549.9,376.8 552.3,376.8 554.3,374.8 
	555,371.6 554.3,368.4 "/>
<polygon class="st10" points="540.6,381.2 538.1,381.2 536.2,383.2 535.4,386.4 536.2,389.6 538.1,391.6 540.6,391.6 542.5,389.6 
	543.3,386.4 542.5,383.2 "/>
<polygon class="st10" points="551.6,396.1 549.2,396.1 547.2,398.1 546.5,401.3 547.2,404.5 549.2,406.5 551.6,406.5 553.6,404.5 
	554.4,401.3 553.6,398.1 "/>
<image style="overflow:visible;enable-background:new    ;" width="2039" height="324" id="image" xlink:href="6D10DDE9.png"  transform="matrix(0.2393 0 0 0.3305 233.7552 509.8146)">
</image>
<line class="st12" x1="574.5" y1="274.8" x2="599" y2="274.8"/>
<line class="st12" x1="574.4" y1="283" x2="599" y2="283"/>
<line class="st12" x1="574.4" y1="291.1" x2="599" y2="291.1"/>
<line class="st12" x1="574.4" y1="299.2" x2="599" y2="299.2"/>
<line class="st12" x1="574.4" y1="307.3" x2="599" y2="307.3"/>
<line class="st12" x1="574.4" y1="315.4" x2="599" y2="315.4"/>
<line class="st12" x1="574.4" y1="266.7" x2="599" y2="266.7"/>
<line class="st13" x1="586.6" y1="251.9" x2="586.6" y2="324.4"/>
<line class="st14" x1="586.6" y1="251.9" x2="586.6" y2="324.4"/>
<polygon class="st15" points="586,252.6 586.6,252.2 587.3,252.6 586.6,250.4 "/>
<text transform="matrix(0.7239 0 0 1 634.8701 282.8271)" class="st16 st5 st17">Elevator</text>
<rect x="10.3" y="487.3" class="st1" width="230.7" height="96.7"/>
<rect x="10.3" y="332.8" class="st1" width="230.7" height="148.7"/>
<rect x="707.7" y="487.3" class="st1" width="230.7" height="96.7"/>
<rect x="707.7" y="332.8" class="st1" width="230.7" height="148.7"/>
<rect x="202.5" y="14.5" class="st1" width="185" height="128.3"/>
<rect x="583.8" y="14.5" class="st1" width="161.8" height="128.3"/>
<rect x="393.2" y="14.5" class="st1" width="185" height="128.3"/>
<rect x="813.5" y="148.7" class="st1" width="123" height="178.3"/>
<rect x="10.8" y="148.7" class="st1" width="123" height="178.3"/>
<rect x="11.7" y="14.7" class="st18" width="185" height="128.3"/>
<rect x="750.3" y="14.7" class="st18" width="185.3" height="128.3"/>
</svg>
