<svg xmlns="http://www.w3.org/2000/svg" xmlns:xlink="http://www.w3.org/1999/xlink" viewBox="0 0 928 569.5">
  <defs>
    <style>
      .cls-1 {
        fill: #2f398e;
      }

      .cls-2, .cls-4 {
        fill: #e6e6e6;
      }

      .cls-3 {
        fill: #7e7e7e;
      }

      .cls-4, .cls-5, .cls-7 {
        stroke: #231f20;
      }

      .cls-12, .cls-17, .cls-18, .cls-19, .cls-4, .cls-5, .cls-7 {
        stroke-miterlimit: 10;
      }

      .cls-4 {
        stroke-width: 0.14px;
      }

      .cls-5, .cls-6, .cls-7 {
        fill: none;
      }

      .cls-5 {
        stroke-width: 0.36px;
      }

      .cls-7 {
        stroke-width: 0.21px;
      }

      .cls-8 {
        fill: #231f20;
      }

      .cls-9 {
        isolation: isolate;
        font-size: 16.58px;
        fill: #d8d8d8;
        font-family: Arial-BoldMT, Arial;
        font-weight: 700;
      }

      .cls-10 {
        fill: #c69c6d;
      }

      .cls-11 {
        fill: #cd6c32;
      }

      .cls-12 {
        fill: #a67c52;
        stroke: #999;
        stroke-width: 0.5px;
      }

      .cls-13 {
        fill: #b3b3b3;
      }

      .cls-14, .cls-19 {
        fill: #ccc;
      }

      .cls-15 {
        fill: url(#linear-gradient);
      }

      .cls-16 {
        fill: url(#linear-gradient-2);
      }

      .cls-17, .cls-18 {
        fill: #278b00;
      }

      .cls-17, .cls-18, .cls-19 {
        stroke: #b3b3b3;
      }

      .cls-17 {
        stroke-width: 0.05px;
      }

      .cls-18 {
        stroke-width: 0.05px;
      }

      .cls-19 {
        stroke-width: 0.05px;
      }

      .cls-20 {
        fill: #603813;
      }

      .cls-21 {
        fill: #009245;
      }

      .cls-22 {
        fill: url(#linear-gradient-3);
      }

      .cls-23 {
        fill: url(#linear-gradient-4);
      }
    </style>
    <linearGradient id="linear-gradient" x1="208.14" y1="516.76" x2="218.01" y2="516.76" gradientUnits="userSpaceOnUse">
      <stop offset="0" stop-color="#fff"/>
      <stop offset="1" stop-color="#999"/>
    </linearGradient>
    <linearGradient id="linear-gradient-2" x1="209.06" y1="516.68" x2="222.09" y2="516.68" gradientUnits="userSpaceOnUse">
      <stop offset="0" stop-color="#999"/>
      <stop offset="0.11" stop-color="#b6b6b6"/>
      <stop offset="0.23" stop-color="#d0d0d0"/>
      <stop offset="0.37" stop-color="#e5e5e5"/>
      <stop offset="0.52" stop-color="#f4f4f4"/>
      <stop offset="0.71" stop-color="#fcfcfc"/>
      <stop offset="1" stop-color="#fff"/>
    </linearGradient>
    <linearGradient id="linear-gradient-3" x1="905.47" y1="516.76" x2="915.34" y2="516.76" xlink:href="#linear-gradient"/>
    <linearGradient id="linear-gradient-4" x1="906.39" y1="516.68" x2="919.42" y2="516.68" xlink:href="#linear-gradient-2"/>
  </defs>
  <title>Asset 1</title>
  <g id="Layer_2" data-name="Layer 2">
    <g id="Layer_1-2" data-name="Layer 1">
      <polygon class="cls-1" points="375.68 174.63 561.45 173.74 561.79 309.62 376.02 310.51 375.68 174.63"/>
      <polygon class="cls-2" points="233.47 175.12 371.88 174.46 372.22 310.34 233.81 311 233.47 175.12"/>
      <polygon class="cls-3" points="591.19 219.4 705.16 218.85 705.39 309.43 591.42 309.98 591.19 219.4"/>
      <rect class="cls-4" x="563.82" y="222.06" width="24.87" height="87.68"/>
      <line class="cls-5" x1="564.13" y1="260.34" x2="588.72" y2="260.34"/>
      <line class="cls-5" x1="564.11" y1="268.46" x2="588.71" y2="268.46"/>
      <line class="cls-5" x1="564.1" y1="276.57" x2="588.69" y2="276.57"/>
      <line class="cls-5" x1="564.08" y1="284.7" x2="588.68" y2="284.7"/>
      <line class="cls-5" x1="564.07" y1="292.82" x2="588.66" y2="292.82"/>
      <line class="cls-5" x1="564.06" y1="300.94" x2="588.65" y2="300.94"/>
      <line class="cls-5" x1="564.03" y1="252.22" x2="588.62" y2="252.22"/>
      <line class="cls-6" x1="576.29" y1="237.37" x2="576.29" y2="309.89"/>
      <line class="cls-7" x1="576.29" y1="237.37" x2="576.29" y2="309.89"/>
      <polygon class="cls-8" points="575.62 238.07 576.29 237.67 576.97 238.07 576.29 235.86 575.62 238.07"/>
      <text class="cls-9" transform="translate(624.54 268.33) scale(0.72 1)">Elevator</text>
      <rect class="cls-10" y="472.83" width="230.67" height="96.67"/>
      <rect class="cls-2" y="318.33" width="230.67" height="148.67"/>
      <rect class="cls-1" x="697.33" y="318.33" width="230.67" height="148.67"/>
      <rect class="cls-2" x="192.17" width="185" height="128.25"/>
      <rect class="cls-2" x="573.5" width="161.83" height="128.25"/>
      <rect class="cls-11" x="382.83" width="185" height="128.25"/>
      <rect class="cls-2" x="803.17" y="134.17" width="123" height="178.33"/>
      <rect class="cls-1" x="0.5" y="134.17" width="123" height="178.33"/>
      <rect class="cls-2" x="1.33" y="0.17" width="185" height="128.33"/>
      <rect class="cls-11" x="740" y="0.17" width="185.33" height="128.33"/>
      <rect class="cls-12" x="35.33" y="491.74" width="14.75" height="13.63"/>
      <rect class="cls-13" x="54.15" y="487" width="9.67" height="7.96"/>
      <rect class="cls-13" x="54.16" y="495.17" width="9.67" height="7.96"/>
      <rect class="cls-13" x="54.16" y="503.34" width="9.67" height="7.96"/>
      <rect class="cls-13" x="21.46" y="487" width="9.67" height="7.96"/>
      <rect class="cls-13" x="21.47" y="495.17" width="9.67" height="7.96"/>
      <rect class="cls-13" x="21.47" y="503.34" width="9.67" height="7.96"/>
      <rect class="cls-14" x="21.63" y="487.04" width="5" height="7.75" rx="2.49" ry="2.49"/>
      <rect class="cls-14" x="21.63" y="495.24" width="5" height="7.75" rx="2.49" ry="2.49"/>
      <rect class="cls-14" x="21.63" y="503.41" width="5" height="7.75" rx="2.49" ry="2.49"/>
      <rect class="cls-14" x="58.54" y="487.04" width="5" height="7.75" rx="2.49" ry="2.49"/>
      <rect class="cls-14" x="58.54" y="495.24" width="5" height="7.75" rx="2.49" ry="2.49"/>
      <rect class="cls-14" x="58.54" y="503.41" width="5" height="7.75" rx="2.49" ry="2.49"/>
      <rect class="cls-12" x="35.33" y="526.49" width="14.75" height="13.63"/>
      <rect class="cls-13" x="54.15" y="521.75" width="9.67" height="7.96"/>
      <rect class="cls-13" x="54.16" y="529.92" width="9.67" height="7.96"/>
      <rect class="cls-13" x="54.16" y="538.09" width="9.67" height="7.96"/>
      <rect class="cls-13" x="21.46" y="521.75" width="9.67" height="7.96"/>
      <rect class="cls-13" x="21.47" y="529.92" width="9.67" height="7.96"/>
      <rect class="cls-13" x="21.47" y="538.09" width="9.67" height="7.96"/>
      <rect class="cls-14" x="21.63" y="521.79" width="5" height="7.75" rx="2.49" ry="2.49"/>
      <rect class="cls-14" x="21.63" y="529.99" width="5" height="7.75" rx="2.49" ry="2.49"/>
      <rect class="cls-14" x="21.63" y="538.16" width="5" height="7.75" rx="2.49" ry="2.49"/>
      <rect class="cls-14" x="58.54" y="521.79" width="5" height="7.75" rx="2.49" ry="2.49"/>
      <rect class="cls-14" x="58.54" y="529.99" width="5" height="7.75" rx="2.49" ry="2.49"/>
      <rect class="cls-14" x="58.54" y="538.16" width="5" height="7.75" rx="2.49" ry="2.49"/>
      <rect class="cls-14" x="203.79" y="497.49" width="21.38" height="38" rx="4.27" ry="4.27"/>
      <rect class="cls-15" x="210.06" y="509.54" width="7.57" height="14.44"/>
      <rect class="cls-16" x="211.6" y="508.82" width="9.99" height="15.72" rx="3.44" ry="3.44"/>
      <rect class="cls-12" x="97.83" y="487.2" width="25.83" height="60"/>
      <rect class="cls-13" x="127.08" y="487.1" width="11.08" height="9.08"/>
      <rect class="cls-13" x="127.08" y="504.16" width="11.08" height="9.08"/>
      <rect class="cls-13" x="127.08" y="521.22" width="11.08" height="9.08"/>
      <rect class="cls-13" x="127.08" y="538.29" width="11.08" height="9.08"/>
      <rect class="cls-13" x="82.71" y="487.1" width="11.08" height="9.08"/>
      <rect class="cls-13" x="82.71" y="504.16" width="11.08" height="9.08"/>
      <rect class="cls-13" x="82.71" y="521.22" width="11.08" height="9.08"/>
      <rect class="cls-13" x="82.71" y="538.29" width="11.08" height="9.08"/>
      <rect class="cls-14" x="83.54" y="488.14" width="4.04" height="6.54" rx="2.02" ry="2.02"/>
      <rect class="cls-14" x="83.54" y="505.2" width="4.04" height="6.54" rx="2.02" ry="2.02"/>
      <rect class="cls-14" x="83.54" y="522.2" width="4.04" height="6.54" rx="2.02" ry="2.02"/>
      <rect class="cls-14" x="83.54" y="539.58" width="4.04" height="6.54" rx="2.02" ry="2.02"/>
      <rect class="cls-14" x="133.29" y="488.14" width="4.04" height="6.54" rx="2.02" ry="2.02"/>
      <rect class="cls-14" x="133.29" y="505.2" width="4.04" height="6.54" rx="2.02" ry="2.02"/>
      <rect class="cls-14" x="133.29" y="522.2" width="4.04" height="6.54" rx="2.02" ry="2.02"/>
      <rect class="cls-14" x="133.29" y="539.58" width="4.04" height="6.54" rx="2.02" ry="2.02"/>
      <polygon class="cls-17" points="10.42 564.24 8.61 564.24 7.15 565.01 6.58 566.26 7.15 567.51 8.61 568.27 10.42 568.27 11.88 567.51 12.44 566.26 11.88 565.01 10.42 564.24"/>
      <polygon class="cls-17" points="16.13 564.24 14.32 564.24 12.85 565.01 12.29 566.26 12.85 567.51 14.32 568.27 16.13 568.27 17.59 567.51 18.14 566.26 17.59 565.01 16.13 564.24"/>
      <polygon class="cls-17" points="21.98 564.24 20.17 564.24 18.71 565.01 18.16 566.26 18.71 567.51 20.17 568.27 21.98 568.27 23.45 567.51 24.01 566.26 23.45 565.01 21.98 564.24"/>
      <polygon class="cls-17" points="27.77 564.24 25.96 564.24 24.5 565.01 23.94 566.26 24.5 567.51 25.96 568.27 27.77 568.27 29.23 567.51 29.8 566.26 29.23 565.01 27.77 564.24"/>
      <polygon class="cls-17" points="33.33 564.24 31.52 564.24 30.05 565.01 29.5 566.26 30.05 567.51 31.52 568.27 33.33 568.27 34.79 567.51 35.35 566.26 34.79 565.01 33.33 564.24"/>
      <polygon class="cls-17" points="39.03 564.24 37.22 564.24 35.76 565.01 35.19 566.26 35.76 567.51 37.22 568.27 39.03 568.27 40.49 567.51 41.05 566.26 40.49 565.01 39.03 564.24"/>
      <polygon class="cls-17" points="44.9 564.24 43.09 564.24 41.63 565.01 41.06 566.26 41.63 567.51 43.09 568.27 44.9 568.27 46.37 567.51 46.92 566.26 46.37 565.01 44.9 564.24"/>
      <polygon class="cls-17" points="50.69 564.24 48.88 564.24 47.41 565.01 46.85 566.26 47.41 567.51 48.88 568.27 50.69 568.27 52.15 567.51 52.71 566.26 52.15 565.01 50.69 564.24"/>
      <polygon class="cls-17" points="6.52 566.82 6.52 565.51 5.46 564.45 3.75 564.05 2.02 564.45 0.96 565.51 0.96 566.82 2.02 567.88 3.75 568.29 5.46 567.88 6.52 566.82"/>
      <polygon class="cls-17" points="62.25 564.24 60.44 564.24 58.98 565.01 58.41 566.26 58.98 567.51 60.44 568.27 62.25 568.27 63.72 567.51 64.27 566.26 63.72 565.01 62.25 564.24"/>
      <polygon class="cls-17" points="67.96 564.24 66.15 564.24 64.69 565.01 64.12 566.26 64.69 567.51 66.15 568.27 67.96 568.27 69.42 567.51 69.98 566.26 69.42 565.01 67.96 564.24"/>
      <polygon class="cls-17" points="73.82 564.24 72.01 564.24 70.54 565.01 69.99 566.26 70.54 567.51 72.01 568.27 73.82 568.27 75.28 567.51 75.85 566.26 75.28 565.01 73.82 564.24"/>
      <polygon class="cls-17" points="79.6 564.24 77.8 564.24 76.33 565.01 75.78 566.26 76.33 567.51 77.8 568.27 79.6 568.27 81.07 567.51 81.64 566.26 81.07 565.01 79.6 564.24"/>
      <polygon class="cls-17" points="85.16 564.24 83.35 564.24 81.88 565.01 81.33 566.26 81.88 567.51 83.35 568.27 85.16 568.27 86.62 567.51 87.19 566.26 86.62 565.01 85.16 564.24"/>
      <polygon class="cls-17" points="90.86 564.24 89.05 564.24 87.59 565.01 87.02 566.26 87.59 567.51 89.05 568.27 90.86 568.27 92.33 567.51 92.88 566.26 92.33 565.01 90.86 564.24"/>
      <polygon class="cls-17" points="96.73 564.24 94.92 564.24 93.46 565.01 92.89 566.26 93.46 567.51 94.92 568.27 96.73 568.27 98.2 567.51 98.75 566.26 98.2 565.01 96.73 564.24"/>
      <polygon class="cls-17" points="102.52 564.24 100.71 564.24 99.25 565.01 98.68 566.26 99.25 567.51 100.71 568.27 102.52 568.27 103.99 567.51 104.54 566.26 103.99 565.01 102.52 564.24"/>
      <polygon class="cls-17" points="58.36 566.82 58.36 565.51 57.29 564.45 55.58 564.05 53.85 564.45 52.79 565.51 52.79 566.82 53.85 567.88 55.58 568.29 57.29 567.88 58.36 566.82"/>
      <polygon class="cls-17" points="114.09 564.24 112.28 564.24 110.81 565.01 110.25 566.26 110.81 567.51 112.28 568.27 114.09 568.27 115.55 567.51 116.1 566.26 115.55 565.01 114.09 564.24"/>
      <polygon class="cls-17" points="119.79 564.24 117.98 564.24 116.52 565.01 115.95 566.26 116.52 567.51 117.98 568.27 119.79 568.27 121.26 567.51 121.81 566.26 121.26 565.01 119.79 564.24"/>
      <polygon class="cls-17" points="125.65 564.24 123.84 564.24 122.38 565.01 121.82 566.26 122.38 567.51 123.84 568.27 125.65 568.27 127.11 567.51 127.68 566.26 127.11 565.01 125.65 564.24"/>
      <polygon class="cls-17" points="131.44 564.24 129.63 564.24 128.16 565.01 127.61 566.26 128.16 567.51 129.63 568.27 131.44 568.27 132.9 567.51 133.47 566.26 132.9 565.01 131.44 564.24"/>
      <polygon class="cls-17" points="136.99 564.24 135.18 564.24 133.72 565.01 133.16 566.26 133.72 567.51 135.18 568.27 136.99 568.27 138.46 567.51 139.02 566.26 138.46 565.01 136.99 564.24"/>
      <polygon class="cls-17" points="142.7 564.24 140.89 564.24 139.42 565.01 138.86 566.26 139.42 567.51 140.89 568.27 142.7 568.27 144.16 567.51 144.71 566.26 144.16 565.01 142.7 564.24"/>
      <polygon class="cls-17" points="148.57 564.24 146.76 564.24 145.29 565.01 144.73 566.26 145.29 567.51 146.76 568.27 148.57 568.27 150.03 567.51 150.59 566.26 150.03 565.01 148.57 564.24"/>
      <polygon class="cls-17" points="154.36 564.24 152.55 564.24 151.08 565.01 150.52 566.26 151.08 567.51 152.55 568.27 154.36 568.27 155.82 567.51 156.37 566.26 155.82 565.01 154.36 564.24"/>
      <polygon class="cls-17" points="110.19 566.82 110.19 565.51 109.13 564.45 107.41 564.05 105.69 564.45 104.62 565.51 104.62 566.82 105.69 567.88 107.41 568.29 109.13 567.88 110.19 566.82"/>
      <polygon class="cls-17" points="165.92 564.24 164.11 564.24 162.65 565.01 162.08 566.26 162.65 567.51 164.11 568.27 165.92 568.27 167.38 567.51 167.94 566.26 167.38 565.01 165.92 564.24"/>
      <polygon class="cls-17" points="171.63 564.24 169.82 564.24 168.35 565.01 167.78 566.26 168.35 567.51 169.82 568.27 171.63 568.27 173.09 567.51 173.64 566.26 173.09 565.01 171.63 564.24"/>
      <polygon class="cls-17" points="177.48 564.24 175.67 564.24 174.21 565.01 173.66 566.26 174.21 567.51 175.67 568.27 177.48 568.27 178.95 567.51 179.51 566.26 178.95 565.01 177.48 564.24"/>
      <polygon class="cls-17" points="183.27 564.24 181.46 564.24 180 565.01 179.44 566.26 180 567.51 181.46 568.27 183.27 568.27 184.74 567.51 185.3 566.26 184.74 565.01 183.27 564.24"/>
      <polygon class="cls-17" points="188.82 564.24 187.01 564.24 185.55 565.01 185 566.26 185.55 567.51 187.01 568.27 188.82 568.27 190.29 567.51 190.85 566.26 190.29 565.01 188.82 564.24"/>
      <polygon class="cls-17" points="194.53 564.24 192.72 564.24 191.26 565.01 190.69 566.26 191.26 567.51 192.72 568.27 194.53 568.27 195.99 567.51 196.55 566.26 195.99 565.01 194.53 564.24"/>
      <polygon class="cls-17" points="200.4 564.24 198.59 564.24 197.13 565.01 196.56 566.26 197.13 567.51 198.59 568.27 200.4 568.27 201.87 567.51 202.42 566.26 201.87 565.01 200.4 564.24"/>
      <polygon class="cls-17" points="206.19 564.24 204.38 564.24 202.91 565.01 202.35 566.26 202.91 567.51 204.38 568.27 206.19 568.27 207.65 567.51 208.21 566.26 207.65 565.01 206.19 564.24"/>
      <polygon class="cls-17" points="211.65 564.24 209.84 564.24 208.38 565.01 207.82 566.26 208.38 567.51 209.84 568.27 211.65 568.27 213.11 567.51 213.68 566.26 213.11 565.01 211.65 564.24"/>
      <polygon class="cls-17" points="217.44 564.24 215.63 564.24 214.16 565.01 213.61 566.26 214.16 567.51 215.63 568.27 217.44 568.27 218.9 567.51 219.47 566.26 218.9 565.01 217.44 564.24"/>
      <polygon class="cls-17" points="222.99 564.24 221.18 564.24 219.72 565.01 219.16 566.26 219.72 567.51 221.18 568.27 222.99 568.27 224.46 567.51 225.02 566.26 224.46 565.01 222.99 564.24"/>
      <polygon class="cls-18" points="228.63 564.24 226.85 564.24 225.41 565.01 224.86 566.26 225.41 567.51 226.85 568.27 228.63 568.27 230.06 567.51 230.6 566.26 230.06 565.01 228.63 564.24"/>
      <polygon class="cls-17" points="162.02 566.82 162.02 565.51 160.96 564.45 159.25 564.05 157.52 564.45 156.46 565.51 156.46 566.82 157.52 567.88 159.25 568.29 160.96 567.88 162.02 566.82"/>
      <rect class="cls-19" x="202.33" y="475.2" width="22.17" height="6.67"/>
      <circle class="cls-20" cx="220.79" cy="478.46" r="2.13"/>
      <circle class="cls-20" cx="205.6" cy="478.46" r="2.13"/>
      <path class="cls-21" d="M222,473.86l-2.36.24c.27,1.59.55,3.22.83,4.89l.7.07C221.44,477.36,221.71,475.63,222,473.86Z"/>
      <path class="cls-21" d="M206.61,473.86l-2.36.24c.28,1.59.55,3.22.83,4.89l.7.07Q206.2,476.51,206.61,473.86Z"/>
      <rect class="cls-10" x="697.33" y="472.83" width="230.67" height="96.67"/>
      <rect class="cls-12" x="732.67" y="491.74" width="14.75" height="13.63"/>
      <rect class="cls-13" x="751.48" y="487" width="9.67" height="7.96"/>
      <rect class="cls-13" x="751.49" y="495.17" width="9.67" height="7.96"/>
      <rect class="cls-13" x="751.49" y="503.34" width="9.67" height="7.96"/>
      <rect class="cls-13" x="718.79" y="487" width="9.67" height="7.96"/>
      <rect class="cls-13" x="718.8" y="495.17" width="9.67" height="7.96"/>
      <rect class="cls-13" x="718.8" y="503.34" width="9.67" height="7.96"/>
      <rect class="cls-14" x="718.96" y="487.04" width="5" height="7.75" rx="2.49" ry="2.49"/>
      <rect class="cls-14" x="718.96" y="495.24" width="5" height="7.75" rx="2.49" ry="2.49"/>
      <rect class="cls-14" x="718.96" y="503.41" width="5" height="7.75" rx="2.49" ry="2.49"/>
      <rect class="cls-14" x="755.88" y="487.04" width="5" height="7.75" rx="2.49" ry="2.49"/>
      <rect class="cls-14" x="755.88" y="495.24" width="5" height="7.75" rx="2.49" ry="2.49"/>
      <rect class="cls-14" x="755.88" y="503.41" width="5" height="7.75" rx="2.49" ry="2.49"/>
      <rect class="cls-12" x="732.67" y="526.49" width="14.75" height="13.63"/>
      <rect class="cls-13" x="751.48" y="521.75" width="9.67" height="7.96"/>
      <rect class="cls-13" x="751.49" y="529.92" width="9.67" height="7.96"/>
      <rect class="cls-13" x="751.49" y="538.09" width="9.67" height="7.96"/>
      <rect class="cls-13" x="718.79" y="521.75" width="9.67" height="7.96"/>
      <rect class="cls-13" x="718.8" y="529.92" width="9.67" height="7.96"/>
      <rect class="cls-13" x="718.8" y="538.09" width="9.67" height="7.96"/>
      <rect class="cls-14" x="718.96" y="521.79" width="5" height="7.75" rx="2.49" ry="2.49"/>
      <rect class="cls-14" x="718.96" y="529.99" width="5" height="7.75" rx="2.49" ry="2.49"/>
      <rect class="cls-14" x="718.96" y="538.16" width="5" height="7.75" rx="2.49" ry="2.49"/>
      <rect class="cls-14" x="755.88" y="521.79" width="5" height="7.75" rx="2.49" ry="2.49"/>
      <rect class="cls-14" x="755.88" y="529.99" width="5" height="7.75" rx="2.49" ry="2.49"/>
      <rect class="cls-14" x="755.88" y="538.16" width="5" height="7.75" rx="2.49" ry="2.49"/>
      <rect class="cls-14" x="901.13" y="497.49" width="21.38" height="38" rx="4.27" ry="4.27"/>
      <rect class="cls-22" x="907.4" y="509.54" width="7.57" height="14.44"/>
      <rect class="cls-23" x="908.93" y="508.82" width="9.99" height="15.72" rx="3.44" ry="3.44"/>
      <rect class="cls-12" x="795.17" y="487.2" width="25.83" height="60"/>
      <rect class="cls-13" x="824.42" y="487.1" width="11.08" height="9.08"/>
      <rect class="cls-13" x="824.42" y="504.16" width="11.08" height="9.08"/>
      <rect class="cls-13" x="824.42" y="521.22" width="11.08" height="9.08"/>
      <rect class="cls-13" x="824.42" y="538.29" width="11.08" height="9.08"/>
      <rect class="cls-13" x="780.04" y="487.1" width="11.08" height="9.08"/>
      <rect class="cls-13" x="780.04" y="504.16" width="11.08" height="9.08"/>
      <rect class="cls-13" x="780.04" y="521.22" width="11.08" height="9.08"/>
      <rect class="cls-13" x="780.04" y="538.29" width="11.08" height="9.08"/>
      <rect class="cls-14" x="780.88" y="488.14" width="4.04" height="6.54" rx="2.02" ry="2.02"/>
      <rect class="cls-14" x="780.88" y="505.2" width="4.04" height="6.54" rx="2.02" ry="2.02"/>
      <rect class="cls-14" x="780.88" y="522.2" width="4.04" height="6.54" rx="2.02" ry="2.02"/>
      <rect class="cls-14" x="780.88" y="539.58" width="4.04" height="6.54" rx="2.02" ry="2.02"/>
      <rect class="cls-14" x="830.62" y="488.14" width="4.04" height="6.54" rx="2.02" ry="2.02"/>
      <rect class="cls-14" x="830.62" y="505.2" width="4.04" height="6.54" rx="2.02" ry="2.02"/>
      <rect class="cls-14" x="830.62" y="522.2" width="4.04" height="6.54" rx="2.02" ry="2.02"/>
      <rect class="cls-14" x="830.62" y="539.58" width="4.04" height="6.54" rx="2.02" ry="2.02"/>
      <polygon class="cls-17" points="707.75 564.24 705.94 564.24 704.48 565.01 703.91 566.26 704.48 567.51 705.94 568.27 707.75 568.27 709.22 567.51 709.77 566.26 709.22 565.01 707.75 564.24"/>
      <polygon class="cls-17" points="713.46 564.24 711.65 564.24 710.18 565.01 709.62 566.26 710.18 567.51 711.65 568.27 713.46 568.27 714.92 567.51 715.48 566.26 714.92 565.01 713.46 564.24"/>
      <polygon class="cls-17" points="719.32 564.24 717.51 564.24 716.04 565.01 715.49 566.26 716.04 567.51 717.51 568.27 719.32 568.27 720.78 567.51 721.35 566.26 720.78 565.01 719.32 564.24"/>
      <polygon class="cls-17" points="725.1 564.24 723.29 564.24 721.83 565.01 721.28 566.26 721.83 567.51 723.29 568.27 725.1 568.27 726.57 567.51 727.13 566.26 726.57 565.01 725.1 564.24"/>
      <polygon class="cls-17" points="730.66 564.24 728.85 564.24 727.38 565.01 726.83 566.26 727.38 567.51 728.85 568.27 730.66 568.27 732.12 567.51 732.69 566.26 732.12 565.01 730.66 564.24"/>
      <polygon class="cls-17" points="736.36 564.24 734.55 564.24 733.09 565.01 732.52 566.26 733.09 567.51 734.55 568.27 736.36 568.27 737.83 567.51 738.38 566.26 737.83 565.01 736.36 564.24"/>
      <polygon class="cls-17" points="742.23 564.24 740.42 564.24 738.96 565.01 738.39 566.26 738.96 567.51 740.42 568.27 742.23 568.27 743.7 567.51 744.25 566.26 743.7 565.01 742.23 564.24"/>
      <polygon class="cls-17" points="748.02 564.24 746.21 564.24 744.75 565.01 744.18 566.26 744.75 567.51 746.21 568.27 748.02 568.27 749.49 567.51 750.04 566.26 749.49 565.01 748.02 564.24"/>
      <polygon class="cls-17" points="703.86 566.82 703.86 565.51 702.79 564.45 701.08 564.05 699.35 564.45 698.29 565.51 698.29 566.82 699.35 567.88 701.08 568.29 702.79 567.88 703.86 566.82"/>
      <polygon class="cls-17" points="759.59 564.24 757.78 564.24 756.31 565.01 755.75 566.26 756.31 567.51 757.78 568.27 759.59 568.27 761.05 567.51 761.6 566.26 761.05 565.01 759.59 564.24"/>
      <polygon class="cls-17" points="765.29 564.24 763.48 564.24 762.02 565.01 761.45 566.26 762.02 567.51 763.48 568.27 765.29 568.27 766.76 567.51 767.31 566.26 766.76 565.01 765.29 564.24"/>
      <polygon class="cls-17" points="771.15 564.24 769.34 564.24 767.88 565.01 767.32 566.26 767.88 567.51 769.34 568.27 771.15 568.27 772.61 567.51 773.18 566.26 772.61 565.01 771.15 564.24"/>
      <polygon class="cls-17" points="776.94 564.24 775.13 564.24 773.66 565.01 773.11 566.26 773.66 567.51 775.13 568.27 776.94 568.27 778.4 567.51 778.97 566.26 778.4 565.01 776.94 564.24"/>
      <polygon class="cls-17" points="782.49 564.24 780.68 564.24 779.22 565.01 778.66 566.26 779.22 567.51 780.68 568.27 782.49 568.27 783.96 567.51 784.52 566.26 783.96 565.01 782.49 564.24"/>
      <polygon class="cls-17" points="788.2 564.24 786.39 564.24 784.92 565.01 784.36 566.26 784.92 567.51 786.39 568.27 788.2 568.27 789.66 567.51 790.21 566.26 789.66 565.01 788.2 564.24"/>
      <polygon class="cls-17" points="794.07 564.24 792.26 564.24 790.79 565.01 790.23 566.26 790.79 567.51 792.26 568.27 794.07 568.27 795.53 567.51 796.09 566.26 795.53 565.01 794.07 564.24"/>
      <polygon class="cls-17" points="799.86 564.24 798.05 564.24 796.58 565.01 796.02 566.26 796.58 567.51 798.05 568.27 799.86 568.27 801.32 567.51 801.87 566.26 801.32 565.01 799.86 564.24"/>
      <polygon class="cls-17" points="755.69 566.82 755.69 565.51 754.63 564.45 752.91 564.05 751.19 564.45 750.12 565.51 750.12 566.82 751.19 567.88 752.91 568.29 754.63 567.88 755.69 566.82"/>
      <polygon class="cls-17" points="811.42 564.24 809.61 564.24 808.15 565.01 807.58 566.26 808.15 567.51 809.61 568.27 811.42 568.27 812.88 567.51 813.44 566.26 812.88 565.01 811.42 564.24"/>
      <polygon class="cls-17" points="817.13 564.24 815.32 564.24 813.85 565.01 813.28 566.26 813.85 567.51 815.32 568.27 817.13 568.27 818.59 567.51 819.14 566.26 818.59 565.01 817.13 564.24"/>
      <polygon class="cls-17" points="822.98 564.24 821.17 564.24 819.71 565.01 819.16 566.26 819.71 567.51 821.17 568.27 822.98 568.27 824.45 567.51 825.01 566.26 824.45 565.01 822.98 564.24"/>
      <polygon class="cls-17" points="828.77 564.24 826.96 564.24 825.5 565.01 824.94 566.26 825.5 567.51 826.96 568.27 828.77 568.27 830.24 567.51 830.8 566.26 830.24 565.01 828.77 564.24"/>
      <polygon class="cls-17" points="834.33 564.24 832.51 564.24 831.05 565.01 830.5 566.26 831.05 567.51 832.51 568.27 834.33 568.27 835.79 567.51 836.36 566.26 835.79 565.01 834.33 564.24"/>
      <polygon class="cls-17" points="840.03 564.24 838.22 564.24 836.76 565.01 836.19 566.26 836.76 567.51 838.22 568.27 840.03 568.27 841.49 567.51 842.05 566.26 841.49 565.01 840.03 564.24"/>
      <polygon class="cls-17" points="845.9 564.24 844.09 564.24 842.63 565.01 842.06 566.26 842.63 567.51 844.09 568.27 845.9 568.27 847.37 567.51 847.92 566.26 847.37 565.01 845.9 564.24"/>
      <polygon class="cls-17" points="851.69 564.24 849.88 564.24 848.41 565.01 847.85 566.26 848.41 567.51 849.88 568.27 851.69 568.27 853.15 567.51 853.71 566.26 853.15 565.01 851.69 564.24"/>
      <polygon class="cls-17" points="807.52 566.82 807.52 565.51 806.46 564.45 804.75 564.05 803.02 564.45 801.96 565.51 801.96 566.82 803.02 567.88 804.75 568.29 806.46 567.88 807.52 566.82"/>
      <polygon class="cls-17" points="863.25 564.24 861.44 564.24 859.98 565.01 859.41 566.26 859.98 567.51 861.44 568.27 863.25 568.27 864.72 567.51 865.27 566.26 864.72 565.01 863.25 564.24"/>
      <polygon class="cls-17" points="868.96 564.24 867.15 564.24 865.68 565.01 865.12 566.26 865.68 567.51 867.15 568.27 868.96 568.27 870.42 567.51 870.98 566.26 870.42 565.01 868.96 564.24"/>
      <polygon class="cls-17" points="874.82 564.24 873.01 564.24 871.54 565.01 870.99 566.26 871.54 567.51 873.01 568.27 874.82 568.27 876.28 567.51 876.85 566.26 876.28 565.01 874.82 564.24"/>
      <polygon class="cls-17" points="880.6 564.24 878.79 564.24 877.33 565.01 876.78 566.26 877.33 567.51 878.79 568.27 880.6 568.27 882.07 567.51 882.63 566.26 882.07 565.01 880.6 564.24"/>
      <polygon class="cls-17" points="886.16 564.24 884.35 564.24 882.88 565.01 882.33 566.26 882.88 567.51 884.35 568.27 886.16 568.27 887.62 567.51 888.19 566.26 887.62 565.01 886.16 564.24"/>
      <polygon class="cls-17" points="891.86 564.24 890.05 564.24 888.59 565.01 888.02 566.26 888.59 567.51 890.05 568.27 891.86 568.27 893.33 567.51 893.88 566.26 893.33 565.01 891.86 564.24"/>
      <polygon class="cls-17" points="897.73 564.24 895.92 564.24 894.46 565.01 893.89 566.26 894.46 567.51 895.92 568.27 897.73 568.27 899.2 567.51 899.75 566.26 899.2 565.01 897.73 564.24"/>
      <polygon class="cls-17" points="903.52 564.24 901.71 564.24 900.25 565.01 899.68 566.26 900.25 567.51 901.71 568.27 903.52 568.27 904.99 567.51 905.54 566.26 904.99 565.01 903.52 564.24"/>
      <polygon class="cls-17" points="908.98 564.24 907.17 564.24 905.71 565.01 905.16 566.26 905.71 567.51 907.17 568.27 908.98 568.27 910.45 567.51 911.01 566.26 910.45 565.01 908.98 564.24"/>
      <polygon class="cls-17" points="914.77 564.24 912.96 564.24 911.5 565.01 910.94 566.26 911.5 567.51 912.96 568.27 914.77 568.27 916.24 567.51 916.8 566.26 916.24 565.01 914.77 564.24"/>
      <polygon class="cls-17" points="920.33 564.24 918.51 564.24 917.05 565.01 916.5 566.26 917.05 567.51 918.51 568.27 920.33 568.27 921.79 567.51 922.36 566.26 921.79 565.01 920.33 564.24"/>
      <polygon class="cls-18" points="925.96 564.24 924.18 564.24 922.75 565.01 922.19 566.26 922.75 567.51 924.18 568.27 925.96 568.27 927.39 567.51 927.94 566.26 927.39 565.01 925.96 564.24"/>
      <polygon class="cls-17" points="859.36 566.82 859.36 565.51 858.29 564.45 856.58 564.05 854.85 564.45 853.79 565.51 853.79 566.82 854.85 567.88 856.58 568.29 858.29 567.88 859.36 566.82"/>
      <rect class="cls-19" x="899.67" y="475.2" width="22.17" height="6.67"/>
      <circle class="cls-20" cx="918.13" cy="478.46" r="2.13"/>
      <circle class="cls-20" cx="902.94" cy="478.46" r="2.13"/>
      <path class="cls-21" d="M919.32,473.86l-2.36.24c.28,1.59.55,3.22.83,4.89l.7.07C918.77,477.36,919,475.63,919.32,473.86Z"/>
      <path class="cls-21" d="M903.94,473.86l-2.35.24c.27,1.59.55,3.22.82,4.89l.71.07C903.39,477.36,903.67,475.63,903.94,473.86Z"/>
    </g>
  </g>
</svg>
