<?xml version="1.0" encoding="utf-8"?>
<!-- Generator: Adobe Illustrator 23.0.0, SVG Export Plug-In . SVG Version: 6.00 Build 0)  -->
<svg version="1.1" id="Layer_1" xmlns="http://www.w3.org/2000/svg" xmlns:xlink="http://www.w3.org/1999/xlink" x="0px" y="0px"
	 viewBox="0 0 3676.1 2825.9" style="enable-background:new 0 0 3676.1 2825.9;" xml:space="preserve">
<style type="text/css">
	.st0{fill:#DBC294;stroke:#666666;stroke-width:10;stroke-miterlimit:10;}
	.st1{fill:#EFC74C;stroke:#666666;stroke-width:10;stroke-miterlimit:10;}
	.st2{fill:#B5AEBA;stroke:#666666;stroke-width:10;stroke-miterlimit:10;}
	.st3{fill:#E6E6E6;stroke:#666666;stroke-width:10;stroke-miterlimit:10;}
	.st4{fill:#F2F2F2;stroke:#666666;stroke-width:10;stroke-miterlimit:10;}
	.st5{fill:url(#SVGID_1_);stroke:#666666;stroke-width:10;stroke-miterlimit:10;}
	.st6{fill:#4E9946;}
	.st7{fill:#5BA953;}
	.st8{fill:#498841;}
	.st9{fill:#E6E6E6;}
	.st10{fill:none;stroke:#666666;stroke-width:10;stroke-miterlimit:10;}
</style>
<title>blankerino</title>
<rect x="643" y="2244.7" class="st0" width="469.4" height="450.3"/>
<rect x="643" y="1794.4" class="st0" width="469.4" height="450.3"/>
<rect x="643" y="1344.1" class="st0" width="469.4" height="450.3"/>
<rect x="643" y="1024.5" class="st1" width="469.4" height="319.6"/>
<rect x="643" y="668.3" class="st1" width="469.4" height="356.2"/>
<rect x="5" y="2351.5" class="st1" width="469.4" height="469.4"/>
<rect x="3201.7" y="2244.7" class="st2" width="469.4" height="576.2"/>
<rect x="3201.7" y="1794.4" class="st1" width="469.4" height="450.3"/>
<rect x="3201.7" y="499.8" class="st3" width="469.4" height="394"/>
<rect x="2463.4" y="5.1" class="st2" width="738.8" height="494.8"/>
<rect x="3201.7" y="5" class="st2" width="469.4" height="494.8"/>
<rect x="2561.7" y="668.3" class="st0" width="471.5" height="489.8"/>
<rect x="2561.7" y="1539.9" class="st0" width="471.5" height="435.8"/>
<rect x="2561.7" y="1975.8" class="st0" width="471.5" height="435.8"/>
<rect x="1112.4" y="668.3" class="st1" width="425.6" height="356.2"/>
<rect x="1538" y="668.3" class="st1" width="425.6" height="356.2"/>
<rect x="1963.6" y="668.3" class="st1" width="598" height="356.2"/>
<rect x="3200" y="630.3" class="st4" width="99.1" height="45"/>
<polygon class="st1" points="215.3,499.8 215.3,418.2 5,418.2 5,609 5,609 5,893.8 474.4,893.8 474.4,499.8 "/>
<rect x="3200" y="675.3" class="st4" width="99.1" height="45"/>
<polygon class="st2" points="748.1,5 643,5 537.8,5 5,5 5,499.8 643,499.8 643,86.6 748.1,86.6 "/>
<polygon class="st2" points="5,893.8 5,1344.1 5,1454.4 245.1,1454.4 245.1,1344.1 474.4,1344.1 474.4,893.8 "/>
<polygon class="st2" points="5,1344.1 5,1794.4 245.1,1794.4 245.1,1904.7 474.4,1904.7 474.4,1794.4 474.4,1344.1 "/>
<polygon class="st0" points="5,1794.4 5,2351.5 212.5,2351.5 212.5,2466 474.4,2466 474.4,2351.5 474.4,1794.4 "/>
<polygon class="st2" points="1280.9,132.9 1280.9,5 643,5 643,499.8 1280.9,499.8 1453.7,499.8 1453.7,132.9 "/>
<polygon class="st2" points="1918.8,5 1280.9,5 1280.9,499.8 1918.8,499.8 2111.3,499.8 2111.3,5 "/>
<polygon class="st2" points="2463.4,145.9 2463.4,5 1918.1,5 1918.1,499.8 2463.4,499.8 2720.6,499.8 2720.6,145.9 "/>
<polygon class="st1" points="3201.7,893.8 3201.7,1344.1 3441.8,1344.1 3441.8,1443.1 3671.1,1443.1 3671.1,1344.1 3671.1,893.8 "/>
<polygon class="st1" points="3201.7,1344.1 3201.7,1794.4 3336.1,1794.4 3336.1,1931.4 3552.1,1931.4 3552.1,1794.4 3671.1,1794.4 
	3671.1,1344.1 "/>
<polygon class="st0" points="2919.8,2411.6 2919.8,2328.1 2561.7,2328.1 2561.7,2411.6 2561.7,2694.9 3033.1,2694.9 3033.1,2411.6 
	"/>
<polygon class="st0" points="2795.2,1024.5 2795.2,1158.2 2561.7,1158.2 2561.7,1539.9 3033.1,1539.9 3033.1,1158.2 3033.1,1024.5 
	"/>
<polygon class="st4" points="3261.9,1057.2 3261.9,955.7 3201.7,955.7 3201.7,499.8 2977.7,499.8 2977.7,439.5 2876.2,439.5 
	2876.2,499.8 2175.7,499.8 2175.7,439.5 2074.3,439.5 2074.3,499.8 1555.2,499.8 1555.2,439.5 1453.7,439.5 1453.7,499.8 
	1149.8,499.8 1149.8,439.5 1048.3,439.5 1048.3,499.8 615.3,499.8 615.3,439.5 513.9,439.5 513.9,499.8 474.4,499.8 474.4,765.8 
	373,765.8 373,826.1 474.4,826.1 474.4,1183.6 373,1183.6 373,1243.8 474.4,1243.8 474.4,1424.3 373,1424.3 373,1484.5 
	474.4,1484.5 474.4,2184.4 373,2184.4 373,2244.7 474.4,2244.7 474.4,2694.9 376.5,2694.9 376.5,2755.2 474.4,2755.2 474.4,2820.9 
	1112.4,2820.9 1112.4,2694.9 643,2694.9 643,2571.8 744.4,2571.8 744.4,2511.6 643,2511.6 643,1964.9 744.4,1964.9 744.4,1904.7 
	643,1904.7 643,1700.2 744.4,1700.2 744.4,1640 643,1640 643,1137.2 744.4,1137.2 744.4,1076.9 643,1076.9 643,668.3 931,668.3 
	931,728.6 1032.4,728.6 1032.4,668.3 1325.2,668.3 1325.2,728.6 1426.6,728.6 1426.6,668.3 1700.1,668.3 1700.1,728.6 1801.5,728.6 
	1801.5,668.3 2299.5,668.3 2299.5,728.6 2400.9,728.6 2400.9,668.3 2736.8,668.3 2736.8,728.6 2838.2,728.6 2838.2,668.3 
	3033.1,668.3 3033.1,1132.8 2972.9,1132.8 2972.9,1234.3 3033.1,1234.3 3033.1,1598.2 2972.9,1598.2 2972.9,1699.6 3033.1,1699.6 
	3033.1,1848.7 3033.1,1975.8 3033.1,2083.5 2972.9,2083.5 2972.9,2185 3033.1,2185 3033.1,2545.1 2972.9,2545.1 2972.9,2646.5 
	3033.1,2646.5 3033.1,2694.9 2561.7,2694.9 2561.7,2820.8 3201.7,2820.8 3201.7,2429.6 3261.9,2429.6 3261.9,2328.1 3201.7,2328.1 
	3201.7,2125.5 3261.9,2125.5 3261.9,2024.1 3201.7,2024.1 3201.7,1616.6 3261.9,1616.6 3261.9,1515.2 3201.7,1515.2 3201.7,1057.2 
	"/>
<linearGradient id="SVGID_1_" gradientUnits="userSpaceOnUse" x1="1220.96" y1="915.215" x2="2453.0898" y2="915.215" gradientTransform="matrix(1 0 0 -1 0 2826)">
	<stop  offset="0" style="stop-color:#009245"/>
	<stop  offset="0.62" style="stop-color:#0E8728"/>
	<stop  offset="1" style="stop-color:#177F14"/>
</linearGradient>
<rect x="1221" y="1126.6" class="st5" width="1232.1" height="1568.3"/>
<g transform="translate(2229.38 2343.7)">
	
		<image style="overflow:visible;enable-background:new    ;" width="159" height="158" id="image" xlink:href="528B6705.png"  transform="matrix(1 0 0 1 2229.3799 2343.7)">
	</image>
</g>
<polygon class="st6" points="2359.7,2372.7 2273.5,2372.7 2317.7,2414.3 "/>
<polygon class="st6" points="2273.5,2458.3 2359.7,2458.3 2317.7,2414.3 "/>
<polygon class="st7" points="2317.7,2414.3 2359.7,2458.3 2359.7,2372.7 "/>
<polygon class="st8" points="2273.5,2372.7 2273.5,2458.3 2317.7,2414.3 "/>
<g transform="translate(2229.38 2507.7)">
	
		<image style="overflow:visible;enable-background:new    ;" width="159" height="159" id="image-2" xlink:href="528B6707.png"  transform="matrix(1 0 0 1 2229.3799 2507.7)">
	</image>
</g>
<polygon class="st6" points="2359.7,2537.3 2273.5,2537.3 2317.7,2578.9 "/>
<polygon class="st6" points="2273.5,2622.9 2359.7,2622.9 2317.7,2578.9 "/>
<polygon class="st7" points="2317.7,2578.9 2359.7,2622.9 2359.7,2537.3 "/>
<polygon class="st8" points="2273.5,2537.3 2273.5,2622.9 2317.7,2578.9 "/>
<g transform="translate(2083.38 2343.7)">
	
		<image style="overflow:visible;enable-background:new    ;" width="159" height="158" xlink:href="528B6702.png"  transform="matrix(1 0 0 1 2083.3799 2343.7)">
	</image>
</g>
<polygon class="st6" points="2213.8,2372.7 2127.6,2372.7 2171.8,2414.3 "/>
<polygon class="st6" points="2127.6,2458.3 2213.8,2458.3 2171.8,2414.3 "/>
<polygon class="st7" points="2171.8,2414.3 2213.8,2458.3 2213.8,2372.7 "/>
<polygon class="st8" points="2127.6,2372.7 2127.6,2458.3 2171.8,2414.3 "/>
<g transform="translate(2083.38 2507.7)">
	
		<image style="overflow:visible;enable-background:new    ;" width="159" height="159" xlink:href="528B6703.png"  transform="matrix(1 0 0 1 2083.3799 2507.7)">
	</image>
</g>
<polygon class="st6" points="2213.8,2537.3 2127.6,2537.3 2171.8,2578.9 "/>
<polygon class="st6" points="2127.6,2622.9 2213.8,2622.9 2171.8,2578.9 "/>
<polygon class="st7" points="2171.8,2578.9 2213.8,2622.9 2213.8,2537.3 "/>
<polygon class="st8" points="2127.6,2537.3 2127.6,2622.9 2171.8,2578.9 "/>
<g transform="translate(1466.38 1335.7)">
	
		<image style="overflow:visible;enable-background:new    ;" width="160" height="159" id="image-3" xlink:href="528B670D.png"  transform="matrix(1 0 0 1 1466.38 1335.7)">
	</image>
</g>
<polygon class="st6" points="1597.3,1365.1 1511,1365.1 1555.2,1406.7 "/>
<polygon class="st6" points="1511,1450.7 1597.3,1450.7 1555.2,1406.7 "/>
<polygon class="st7" points="1555.2,1406.7 1597.3,1450.7 1597.3,1365.1 "/>
<polygon class="st8" points="1511,1365.1 1511,1450.7 1555.2,1406.7 "/>
<g transform="translate(1321.38 1335.7)">
	
		<image style="overflow:visible;enable-background:new    ;" width="159" height="159" xlink:href="528B670F.png"  transform="matrix(1 0 0 1 1321.38 1335.7)">
	</image>
</g>
<polygon class="st6" points="1451.3,1365.1 1365.1,1365.1 1409.3,1406.7 "/>
<polygon class="st6" points="1365.1,1450.7 1451.3,1450.7 1409.3,1406.7 "/>
<polygon class="st7" points="1409.3,1406.7 1451.3,1450.7 1451.3,1365.1 "/>
<polygon class="st8" points="1365.1,1365.1 1365.1,1450.7 1409.3,1406.7 "/>
<g transform="translate(1466.38 1166.7)">
	
		<image style="overflow:visible;enable-background:new    ;" width="160" height="159" xlink:href="528B6700.png"  transform="matrix(1 0 0 1 1466.38 1166.7)">
	</image>
</g>
<polygon class="st6" points="1597.3,1196.2 1511,1196.2 1555.2,1237.8 "/>
<polygon class="st6" points="1511,1281.8 1597.3,1281.8 1555.2,1237.8 "/>
<polygon class="st7" points="1555.2,1237.8 1597.3,1281.8 1597.3,1196.2 "/>
<polygon class="st8" points="1511,1196.2 1511,1281.8 1555.2,1237.8 "/>
<g transform="translate(1317.38 1166.7)">
	
		<image style="overflow:visible;enable-background:new    ;" width="159" height="159" xlink:href="528B6701.png"  transform="matrix(1 0 0 1 1317.38 1166.7)">
	</image>
</g>
<polygon class="st6" points="1447.5,1196.2 1361.3,1196.2 1405.5,1237.8 "/>
<polygon class="st6" points="1361.3,1281.8 1447.5,1281.8 1405.5,1237.8 "/>
<polygon class="st7" points="1405.5,1237.8 1447.5,1281.8 1447.5,1196.2 "/>
<polygon class="st8" points="1361.3,1196.2 1361.3,1281.8 1405.5,1237.8 "/>
<g transform="translate(1466.38 2520.7)">
	
		<image style="overflow:visible;enable-background:new    ;" width="160" height="158" id="image-4" xlink:href="528B6706.png"  transform="matrix(1 0 0 1 1466.38 2520.7)">
	</image>
</g>
<polygon class="st6" points="1597.3,2549.6 1511,2549.6 1555.2,2591.2 "/>
<polygon class="st6" points="1511,2635.2 1597.3,2635.2 1555.2,2591.2 "/>
<polygon class="st7" points="1555.2,2591.2 1597.3,2635.2 1597.3,2549.6 "/>
<polygon class="st8" points="1511,2549.6 1511,2635.2 1555.2,2591.2 "/>
<g transform="translate(1321.38 2520.7)">
	
		<image style="overflow:visible;enable-background:new    ;" width="159" height="158" xlink:href="EE25E3CE.png"  transform="matrix(1 0 0 1 1321.38 2520.7)">
	</image>
</g>
<polygon class="st6" points="1451.3,2549.6 1365.1,2549.6 1409.3,2591.2 "/>
<polygon class="st6" points="1365.1,2635.2 1451.3,2635.2 1409.3,2591.2 "/>
<polygon class="st7" points="1409.3,2591.2 1451.3,2635.2 1451.3,2549.6 "/>
<polygon class="st8" points="1365.1,2549.6 1365.1,2635.2 1409.3,2591.2 "/>
<g transform="translate(1466.38 2351.7)">
	
		<image style="overflow:visible;enable-background:new    ;" width="160" height="158" xlink:href="EE25E3C9.png"  transform="matrix(1 0 0 1 1466.38 2351.7)">
	</image>
</g>
<polygon class="st6" points="1597.3,2380.7 1511,2380.7 1555.2,2422.3 "/>
<polygon class="st6" points="1511,2466.3 1597.3,2466.3 1555.2,2422.3 "/>
<polygon class="st7" points="1555.2,2422.3 1597.3,2466.3 1597.3,2380.7 "/>
<polygon class="st8" points="1511,2380.7 1511,2466.3 1555.2,2422.3 "/>
<g transform="translate(1317.38 2351.7)">
	
		<image style="overflow:visible;enable-background:new    ;" width="159" height="158" xlink:href="EE25E3CA.png"  transform="matrix(1 0 0 1 1317.38 2351.7)">
	</image>
</g>
<polygon class="st6" points="1447.5,2380.7 1361.3,2380.7 1405.5,2422.3 "/>
<polygon class="st6" points="1361.3,2466.3 1447.5,2466.3 1405.5,2422.3 "/>
<polygon class="st7" points="1405.5,2422.3 1447.5,2466.3 1447.5,2380.7 "/>
<polygon class="st8" points="1361.3,2380.7 1361.3,2466.3 1405.5,2422.3 "/>
<g transform="translate(2221.38 1335.7)">
	
		<image style="overflow:visible;enable-background:new    ;" width="160" height="159" xlink:href="EE25E3C8.png"  transform="matrix(1 0 0 1 2221.3799 1335.7)">
	</image>
</g>
<polygon class="st6" points="2352.1,1365.1 2265.8,1365.1 2310,1406.7 "/>
<polygon class="st6" points="2265.8,1450.7 2352.1,1450.7 2310,1406.7 "/>
<polygon class="st7" points="2310,1406.7 2352.1,1450.7 2352.1,1365.1 "/>
<polygon class="st8" points="2265.8,1365.1 2265.8,1450.7 2310,1406.7 "/>
<g transform="translate(2075.38 1335.7)">
	
		<image style="overflow:visible;enable-background:new    ;" width="160" height="159" xlink:href="EE25E3C6.png"  transform="matrix(1 0 0 1 2075.3799 1335.7)">
	</image>
</g>
<polygon class="st6" points="2206.1,1365.1 2119.9,1365.1 2164.1,1406.7 "/>
<polygon class="st6" points="2119.9,1450.7 2206.1,1450.7 2164.1,1406.7 "/>
<polygon class="st7" points="2164.1,1406.7 2206.1,1450.7 2206.1,1365.1 "/>
<polygon class="st8" points="2119.9,1365.1 2119.9,1450.7 2164.1,1406.7 "/>
<g transform="translate(2221.38 1166.7)">
	
		<image style="overflow:visible;enable-background:new    ;" width="160" height="159" xlink:href="EE25E3D9.png"  transform="matrix(1 0 0 1 2221.3799 1166.7)">
	</image>
</g>
<polygon class="st6" points="2352.1,1196.2 2265.8,1196.2 2310,1237.8 "/>
<polygon class="st6" points="2265.8,1281.8 2352.1,1281.8 2310,1237.8 "/>
<polygon class="st7" points="2310,1237.8 2352.1,1281.8 2352.1,1196.2 "/>
<polygon class="st8" points="2265.8,1196.2 2265.8,1281.8 2310,1237.8 "/>
<g transform="translate(2072.38 1166.7)">
	
		<image style="overflow:visible;enable-background:new    ;" width="159" height="159" xlink:href="EE25E3DA.png"  transform="matrix(1 0 0 1 2072.3799 1166.7)">
	</image>
</g>
<polygon class="st6" points="2202.3,1196.2 2116.1,1196.2 2160.3,1237.8 "/>
<polygon class="st6" points="2116.1,1281.8 2202.3,1281.8 2160.3,1237.8 "/>
<polygon class="st7" points="2160.3,1237.8 2202.3,1281.8 2202.3,1196.2 "/>
<polygon class="st8" points="2116.1,1196.2 2116.1,1281.8 2160.3,1237.8 "/>
<polygon class="st9" points="2453.1,1823.3 1924.5,1823.3 1924.5,1126.6 1749.5,1126.6 1749.5,1823.3 1221,1823.3 1221,1998.3 
	1749.5,1998.3 1749.5,2694.9 1924.5,2694.9 1924.5,1998.3 2453.1,1998.3 "/>
<polygon class="st10" points="2453.1,1823.3 1924.5,1823.3 1924.5,1126.6 1749.5,1126.6 1749.5,1823.3 1221,1823.3 1221,1998.3 
	1749.5,1998.3 1749.5,2694.9 1924.5,2694.9 1924.5,1998.3 2453.1,1998.3 "/>
</svg>
